<?xml version="1.0" standalone="no"?>
<!DOCTYPE svg PUBLIC "-//W3C//DTD SVG 1.1//EN" "http://www.w3.org/Graphics/SVG/1.1/DTD/svg11.dtd" >
<svg xmlns="http://www.w3.org/2000/svg" xmlns:xlink="http://www.w3.org/1999/xlink" version="1.1">
<metadata>
Created by FontForge 20170731 at Thu Sep 13 19:46:55 2012
 By Aleksey,,,
Copyright (c) 2008 Jason Walcott/Jukebox. All rights reserved.
</metadata>
<defs>
<font id="PeachyKeenJF" horiz-adv-x="538" >
  <font-face 
    font-family="Peachy Keen JF"
    font-weight="800"
    font-stretch="normal"
    units-per-em="1000"
    panose-1="2 0 6 5 6 0 0 2 0 4"
    ascent="800"
    descent="-200"
    x-height="482"
    cap-height="665"
    bbox="-39 -238 1384 962"
    underline-thickness="17"
    underline-position="-143"
    unicode-range="U+0020-FB02"
  />
<missing-glyph horiz-adv-x="500" 
d="M80 520v-340h340v340h-340zM50 150v400h400v-400h-400z" />
    <glyph glyph-name="fi" unicode="fi" horiz-adv-x="611" 
d="M368 579l-21 -86v-1h1q0 -2 -2.5 -4.5t-4.5 -2.5q-1 0 -2 1q-22 22 -44 22q-40 0 -40 -71v-53l66 4q8 0 8 -7v-1l-10 -135q-2 -8 -8 -8l-55 2l1 -227q0 -14 -13 -14h-1l-161 -7q-15 0 -13 15l1 239l-36 2q-8 0 -8 7v1l6 110q0 8 8 8l31 1l1 106q1 78 45 122t108 44
q31 0 73 -15.5t65 -41.5q6 -6 5 -10zM574 419l-10 -411q-2 -11 -12 -11l-152 4q-5 0 -9 3.5t-4 8.5l-10 409q0 12 11 12l174 -2q5 0 9 -4t3 -9zM591 572q0 -42 -28.5 -71.5t-67.5 -29.5q-40 0 -67.5 29.5t-27.5 71.5q0 41 27.5 70.5t67.5 29.5q39 0 67.5 -29.5t28.5 -70.5z
" />
    <glyph glyph-name="fl" unicode="fl" horiz-adv-x="629" 
d="M368 579l-21 -86v-1h1q0 -2 -2.5 -4.5t-4.5 -2.5q-1 0 -2 1q-22 22 -44 22q-40 0 -40 -71v-53l66 4q8 0 8 -7v-1l-10 -135q-2 -8 -8 -8l-55 2l1 -227q0 -14 -13 -14h-1l-161 -7q-15 0 -13 15l1 239l-36 2q-8 0 -8 7v1l6 110q0 8 8 8l31 1l1 106q1 78 45 122t108 44
q31 0 73 -15.5t65 -41.5q6 -6 5 -10zM592 646l-13 -638q0 -11 -12 -11l-145 4q-5 0 -9 3.5t-4 8.5l-9 635v1q0 12 12 12l167 -3q5 0 9 -3.5t4 -8.5z" />
    <glyph glyph-name=".notdef" horiz-adv-x="500" 
d="M80 520v-340h340v340h-340zM50 150v400h400v-400h-400z" />
    <glyph glyph-name=".null" horiz-adv-x="0" 
 />
    <glyph glyph-name="nonmarkingreturn" horiz-adv-x="333" 
 />
    <glyph glyph-name="space" unicode=" " horiz-adv-x="237" 
 />
    <glyph glyph-name="exclam" unicode="!" horiz-adv-x="230" 
d="M215 645l-33 -485q-2 -11 -13 -11l-81 2q-11 2 -11 11l-14 493q0 11 11 11l130 -9q13 0 11 -12zM197 58q0 -27 -20.5 -46.5t-49.5 -19.5t-49.5 19.5t-20.5 46.5t20.5 46.5t49.5 19.5t49.5 -19.5t20.5 -46.5z" />
    <glyph glyph-name="quotedbl" unicode="&#x22;" horiz-adv-x="462" 
d="M224 566q0 -54 -38 -101t-88 -71q-1 -1 -2 -1q-3 0 -4 2l-35 48v3q0 2 1 3q63 30 79 85q-16 -9 -40 -9q-28 0 -47.5 20t-19.5 49q0 13 5 29.5t25 34t52 17.5q51 0 81.5 -31t30.5 -78zM442 566q0 -54 -38 -101t-87 -71q-1 -1 -4 -1q-1 0 -2 2l-35 48q-1 1 -1 3q0 1 2 3
q63 31 77 85q-15 -9 -39 -9q-28 0 -47.5 20t-19.5 49q0 13 5 29.5t25 34t52 17.5q51 0 81.5 -31t30.5 -78z" />
    <glyph glyph-name="numbersign" unicode="#" horiz-adv-x="540" 
d="M517 283v-3q0 -1 -3 -11t-6 -17.5t-6.5 -16.5t-7.5 -14.5t-7 -5.5l-115 -3l-31 -215q-2 -18 -32 -18q-39 0 -38 15v3l27 212l-95 -2l-35 -190q-3 -19 -31 -19q-39 0 -39 16q0 6 7.5 47.5t17 88.5t10.5 54l-100 -2q-10 0 -10 19q0 50 18 51l106 5l17 97l-98 3
q-11 0 -11 20q0 50 17 50l105 -3l34 186q4 18 31 18q40 0 40 -16q0 -6 -8 -47.5t-17 -88t-10 -54.5l80 -2l30 230q0 6 4.5 11.5t10.5 5.5q10 0 37 -12t26 -19v-3l-31 -216l90 -2q10 0 10 -19q0 -51 -17 -51l-93 2l-11 -77l124 6q4 1 7 -3t3 -10zM318 370l-84 2l-17 -91l90 5
z" />
    <glyph glyph-name="dollar" unicode="$" horiz-adv-x="486" 
d="M459 392q0 -24 -2 -35q-7 -20 -32 -20l-112 5q-12 0 -16 6t-4 19q0 25 -12.5 44.5t-33.5 19.5q-23 0 -34 -10.5t-11 -23.5q0 -17 12.5 -29t23 -16t31.5 -11q8 -2 39.5 -11t43.5 -13.5t36 -16.5t34.5 -24.5t20 -33t9.5 -46.5q0 -58 -43.5 -92t-110.5 -43l2 -55
q0 -7 -5.5 -12.5t-11.5 -4.5l-92 14q-17 4 -17 17l-1 43q-75 14 -116.5 52.5t-41.5 91.5q0 17 5 24.5t20 8.5l102 2q25 0 25 -30q0 -16 19.5 -27t47.5 -11q16 0 26.5 4t13.5 8t3 6q0 12 -14.5 22t-31 15t-38.5 10t-27 7q-61 20 -98.5 55.5t-37.5 103.5q0 74 37.5 124.5
t104.5 66.5v66q0 7 5 12t12 4l106 -16q17 -4 17 -17l-5 -51q68 -18 110 -68.5t42 -133.5z" />
    <glyph glyph-name="percent" unicode="%" horiz-adv-x="778" 
d="M758 223q0 -99 -38.5 -167t-108.5 -68q-78 0 -117.5 56t-39.5 137q0 89 44 161.5t112 72.5q67 0 107.5 -50.5t40.5 -141.5zM593 609q0 -2 -77 -142t-159 -290t-91 -172q-5 -8 -14 -8q-8 0 -27.5 11.5t-19.5 21.5q0 3 73 148.5t151 302t87 179.5q2 9 12 9q5 0 35 -25
t30 -35zM330 482q0 -99 -39 -167t-109 -68q-77 0 -116.5 56t-39.5 137q0 90 44 162t112 72t108 -50t40 -142zM640 207q0 83 -27 83q-16 0 -26.5 -33.5t-10.5 -72.5q0 -71 30 -71q13 0 23.5 31t10.5 63zM212 467q0 82 -27 82q-16 0 -27 -33t-11 -72q0 -72 30 -72
q14 0 24.5 31t10.5 64z" />
    <glyph glyph-name="ampersand" unicode="&#x26;" horiz-adv-x="625" 
d="M602 286v-2l-43 -301q-2 -16 -14 -16h-3l-75 15q-17 2 -17 15q0 1 6 85l-5 1q-19 -43 -68.5 -69t-100.5 -26q-112 0 -180 45t-68 129q0 48 22.5 90t64.5 52v5q-42 7 -67.5 53.5t-25.5 97.5q0 94 76.5 156t187.5 62q91 0 149.5 -55.5t58.5 -145.5q0 -17 -14 -18
q-13 -1 -63 -6t-77 -5q-8 0 -13 11t-8.5 23.5t-16 23.5t-33.5 11q-32 0 -52.5 -18.5t-20.5 -49.5q0 -27 16 -45.5t43 -21.5h4t5 -1q19 -3 20 -21q0 -11 1 -31t1.5 -36t0.5 -30q0 -9 -12.5 -13t-27 -5.5t-27 -12t-12.5 -31.5q0 -30 17.5 -49.5t46.5 -19.5q28 0 48.5 17.5
t27.5 45.5q-34 3 -34 19v63q0 17 17 17q191 7 248 7q6 0 11.5 -4.5t5.5 -10.5z" />
    <glyph glyph-name="quotesingle" unicode="'" horiz-adv-x="243" 
d="M224 566q0 -54 -38 -101t-88 -71q-1 -1 -2 -1q-3 0 -4 2l-35 48v3q0 2 1 3q63 30 79 85q-16 -9 -40 -9q-28 0 -47.5 20t-19.5 49q0 13 5 29.5t25 34t52 17.5q51 0 81.5 -31t30.5 -78z" />
    <glyph glyph-name="parenleft" unicode="(" horiz-adv-x="279" 
d="M263 676q0 -3 -2 -7q-130 -145 -130 -352q0 -110 32.5 -192t94.5 -154q3 -3 3 -8q0 -11 -10 -11h-44q-31 0 -58 25q-26 29 -44 53.5t-40 66t-33.5 97.5t-11.5 124q0 65 11 119.5t34.5 98.5t39 66.5t44.5 58.5q23 25 58 25h46q10 0 10 -10z" />
    <glyph glyph-name="parenright" unicode=")" horiz-adv-x="279" 
d="M265 321q0 -53 -9 -101t-20 -79t-32.5 -67t-33.5 -51.5t-35 -44.5q-8 -11 -24.5 -18.5t-32.5 -7.5h-41q-13 0 -13 11q0 6 4 10q62 70 93.5 152.5t31.5 196.5q0 110 -32 190t-94 153q-2 4 -2 9q0 12 12 12h41q33 0 58 -25q26 -28 44 -52.5t40 -66t33.5 -97.5t11.5 -124z
" />
    <glyph glyph-name="asterisk" unicode="*" horiz-adv-x="342" 
d="M317 566q0 -5 -3 -7l-80 -49l76 -51q3 -3 3 -6q0 -2 -5.5 -12t-12.5 -21t-8 -13q-4 -4 -7 -4t-81 49l-7 -90q0 -7 -7 -7l-49 1q-7 2 -7 7l-2 81q-67 -42 -70 -42q-4 0 -7 3q-1 1 -10.5 12t-17 20.5t-7.5 10.5q0 5 4 7l83 55l-68 41q-2 1 -2 6q0 11 24 65q2 4 5 4t16 -8.5
t29 -20t17 -12.5l-2 77q0 7 6 7q15 0 80 -5q6 -2 6 -7q0 -15 -5 -77q73 49 76 49t6 -3q1 -2 8.5 -17.5t13 -28t5.5 -14.5z" />
    <glyph glyph-name="plus" unicode="+" horiz-adv-x="469" 
d="M425 369v-2l-13 -113q0 -13 -13 -13l-102 -1l-1 -108v-1q0 -14 -12 -14h-104q-13 0 -13 15l-4 107l-108 -1q-5 -1 -9.5 3t-4.5 9l1 2l11 103q2 14 14 14l93 3l-3 100q0 14 13 14h2l112 11h1q12 0 12 -13v-107l115 5q13 0 13 -13z" />
    <glyph glyph-name="comma" unicode="," horiz-adv-x="257" 
d="M224 37q0 -54 -38.5 -101t-87.5 -70q-1 -1 -2 -1q-3 0 -4 2l-35 48v2q0 3 1 4q64 30 79 85q-17 -9 -40 -9q-28 0 -47.5 20t-19.5 49q0 13 5 29.5t25 34t52 17.5q51 0 81.5 -31t30.5 -79z" />
    <glyph glyph-name="hyphen" unicode="-" horiz-adv-x="465" 
d="M432 309v-2l-28 -128q-2 -14 -12 -14l-1 1l-339 17q-5 0 -9 4t-4 9v1l13 104q0 13 13 13l353 8q5 0 9.5 -4t4.5 -9z" />
    <glyph glyph-name="period" unicode="." horiz-adv-x="277" 
d="M232 68q0 -31 -28 -53.5t-67 -22.5q-38 0 -66 22.5t-28 53.5q0 32 27.5 54.5t66.5 22.5q40 0 67.5 -22.5t27.5 -54.5z" />
    <glyph glyph-name="slash" unicode="/" horiz-adv-x="333" 
d="M384 665q0 -3 -70 -169t-147.5 -348.5t-84.5 -198.5q-3 -8 -13 -8q-8 0 -28 11.5t-20 21.5q0 7 286 742q2 8 12 8q5 0 35 -24.5t30 -34.5z" />
    <glyph glyph-name="zero" unicode="0" horiz-adv-x="545" 
d="M519 367q0 -161 -63.5 -271t-176.5 -110q-126 0 -190 90t-64 221q0 94 30 180.5t89 143.5t133 57q111 0 176.5 -81t65.5 -230zM327 342q0 133 -44 133q-27 0 -44 -53.5t-17 -117.5q0 -116 49 -116q22 0 39 50.5t17 103.5z" />
    <glyph glyph-name="one" unicode="1" horiz-adv-x="353" 
d="M303 650l-22 -638q-2 -13 -14 -13l-166 1q-14 0 -14 13l4 486q0 13 -11 7l-8 -5q-12 -7 -19 4l-36 65q-7 11 2 20l63 62q14 12 26 12l183 -1q12 -2 12 -13z" />
    <glyph glyph-name="two" unicode="2" horiz-adv-x="551" 
d="M523 505q0 -50 -21.5 -92t-55.5 -73t-69.5 -58t-70.5 -59t-52 -64l208 24h3q7 0 7 -6l6 -145q0 -7 -7 -11.5t-13 -4.5l-383 -21h-1q-11 0 -19.5 15t-9.5 30l-4 66v8q0 46 29 90.5t70.5 80t83 69t70.5 69.5t29 69q0 20 -10 32.5t-29 12.5q-40 0 -58.5 -35.5t-18.5 -73.5
q0 -9 -10 -9h-1l-152 8q-10 3 -10 11q3 100 79.5 170t190.5 70q109 0 164 -45t55 -128z" />
    <glyph glyph-name="three" unicode="3" horiz-adv-x="518" 
d="M501 473q0 -61 -31.5 -109t-78.5 -55v-5q86 -20 86 -114q0 -202 -249 -202q-83 0 -144 39.5t-69 119.5q-1 16 15 19l121 27q3 1 7 0.5t9 -4t6 -9.5q7 -38 59 -38q28 0 46.5 13t18.5 39q0 28 -23.5 39.5t-60.5 8.5l-51 -4q-12 -1 -18.5 3.5t-5.5 13.5l7 107q2 20 19 20h44
q36 0 63.5 22.5t27.5 60.5q0 29 -15.5 40.5t-46.5 11.5q-21 0 -36.5 -19t-18.5 -44q-4 -16 -18 -14l-131 18q-16 2 -13 19q11 91 69.5 146t147.5 55q135 0 199.5 -60t64.5 -145z" />
    <glyph glyph-name="four" unicode="4" horiz-adv-x="548" 
d="M532 272v-125q0 -10 -13 -10l-66 3q0 -22 0.5 -65.5t0.5 -64.5q0 -12 -12 -12l-155 2q-9 0 -12 12q-4 21 -7 139l-197 8q-5 0 -12.5 4.5t-9.5 9.5q-1 4 -9.5 23.5t-15.5 37t-7 20.5q0 8 10 18q28 35 88 120q36 52 103.5 151.5t75.5 111.5q7 12 16 12l156 -4q11 0 11 -10
v-1q-2 -40 -10.5 -167t-10.5 -197l43 1q13 1 23 -4t10 -13zM267 423q-31 -47 -60 -86q-23 -26 -28 -33q-2 -2 -2 -4q0 -4 6 -4q4 -2 41.5 -2h42.5v129z" />
    <glyph glyph-name="five" unicode="5" horiz-adv-x="515" 
d="M489 217q0 -89 -68.5 -154.5t-192.5 -65.5q-39 0 -75 9t-66.5 27.5t-50 50t-21.5 72.5v2q0 13 15 16l121 28h3q12 0 19 -14q19 -38 59 -38q29 0 47 18t18 43q0 26 -21 45t-61 19q-12 0 -48 -4q-15 -2 -31 -7t-20 -5q-14 0 -37 22.5t-23 38.5v2l35 337q2 18 23 18h3
l325 -22q7 0 7 -4q0 -1 -1 -4t-1 -5l-6 -180q0 -10 -9 -10h-1l-208 15h-1q-8 0 -10 -11l-3 -41v-4q0 -9 5 -9q3 0 11 2q23 6 53 6q99 0 155 -57t56 -136z" />
    <glyph glyph-name="six" unicode="6" horiz-adv-x="512" 
d="M497 219q0 -99 -64.5 -165t-176.5 -66q-76 0 -130.5 45t-79 114t-24.5 152q0 96 26.5 180t85.5 141.5t140 57.5q86 0 148 -39.5t66 -119.5v-2q0 -13 -15 -16l-121 -28h-4q-15 0 -18 14q-7 38 -59 38q-27 0 -48 -29t-21 -71q0 -18 10 -18l1 1h2q41 19 86 19
q90 0 143 -62.5t53 -145.5zM304 222v10q-4 62 -47 64q-18 0 -31 -25t-13 -53v-6q6 -73 44 -74q22 0 34.5 25.5t12.5 58.5z" />
    <glyph glyph-name="seven" unicode="7" horiz-adv-x="507" 
d="M482 555q0 -7 -2 -10l-211 -551q-3 -7 -12 -7h-3l-146 33q-7 2 -7 10q0 2 1 3l143 435q1 1 1 4q0 6 -8 6q0 -1 -1 -1l-165 -15h-1q-8 0 -12 10l-40 183v2q0 9 9 9l401 -3q11 0 16 -11l35 -86q2 -3 2 -11z" />
    <glyph glyph-name="eight" unicode="8" horiz-adv-x="584" 
d="M554 218q0 -108 -73.5 -169.5t-197.5 -61.5q-121 0 -190.5 55.5t-69.5 149.5q0 57 32.5 108t76.5 67q-26 12 -42.5 42t-16.5 60q0 87 67.5 150t183.5 63q103 0 157.5 -48t54.5 -142q0 -38 -15.5 -73t-40.5 -47q31 -14 52.5 -58.5t21.5 -95.5zM371 473q0 29 -11 44t-39 15
q-30 0 -51 -21t-21 -53q0 -56 55 -56q31 0 49 21t18 50zM368 208q0 36 -12.5 53t-46.5 17q-35 0 -59.5 -24.5t-24.5 -62.5q0 -66 64 -66q38 0 58.5 24t20.5 59z" />
    <glyph glyph-name="nine" unicode="9" horiz-adv-x="517" 
d="M493 367q0 -95 -26.5 -179t-85 -142t-139.5 -58q-85 0 -147.5 39.5t-66.5 119.5v2q-1 14 14 17l122 27h3q17 0 19 -13q8 -38 60 -38q27 0 47 28.5t20 71.5q0 16 -12 16q-9 0 -43 -9t-43 -9q-90 0 -143.5 62t-53.5 145q0 99 65.5 165t177.5 66q111 0 171.5 -90.5
t60.5 -220.5zM296 442v6q-6 74 -44 74q-22 0 -34.5 -25.5t-12.5 -58.5v-10q5 -63 47 -63q18 0 31 24.5t13 52.5z" />
    <glyph glyph-name="colon" unicode=":" horiz-adv-x="277" 
d="M235 413q0 -32 -27.5 -54t-66.5 -22t-66.5 22t-27.5 54t27.5 54t66.5 22t66.5 -22t27.5 -54zM235 68q0 -31 -27.5 -53.5t-66.5 -22.5t-66.5 22.5t-27.5 53.5q0 32 27.5 54.5t66.5 22.5t66.5 -22.5t27.5 -54.5z" />
    <glyph glyph-name="semicolon" unicode=";" horiz-adv-x="257" 
d="M224 37q0 -54 -38.5 -101t-87.5 -70q-1 -1 -2 -1q-3 0 -4 2l-35 48v2q0 3 1 4q64 30 79 85q-17 -9 -40 -9q-28 0 -47.5 20t-19.5 49q0 13 5 29.5t25 34t52 17.5q51 0 81.5 -31t30.5 -79zM227 413q0 -32 -27.5 -54t-67.5 -22q-38 0 -66 22.5t-28 53.5t28 53.5t66 22.5
q40 0 67.5 -22t27.5 -54z" />
    <glyph glyph-name="less" unicode="&#x3c;" horiz-adv-x="455" 
d="M397 108l-357 195v34l357 198v-82l-242 -133l242 -136v-76z" />
    <glyph glyph-name="equal" unicode="=" horiz-adv-x="469" 
d="M410 254v-1l-13 -113q0 -14 -12 -14h-1l-337 18q-15 0 -15 13l13 105q2 13 13 13l339 -8q13 0 13 -13zM425 480v-1l-13 -113q0 -14 -13 -14l-327 -4q-14 0 -14 13v1l12 104q4 13 14 13l328 13q13 0 13 -12z" />
    <glyph glyph-name="greater" unicode="&#x3e;" horiz-adv-x="470" 
d="M423 305l-356 -198v82l241 133l-241 136v76l356 -195v-34z" />
    <glyph glyph-name="question" unicode="?" horiz-adv-x="500" 
d="M486 498q0 -45 -16.5 -79t-41.5 -52.5t-53.5 -35.5t-53.5 -30t-41.5 -34.5t-16.5 -49.5q0 -9 3.5 -17.5t7 -13.5t3.5 -6q0 -8 -10 -8h-4l-127 34q-21 4 -21 56q0 37 17 66.5t41.5 48.5t49.5 34.5t42 31.5t17 33q0 28 -40 28q-59 0 -128 -75q-3 -3 -8 -3q-4 0 -5 1l-89 95
q-1 0 -1 4q0 3 2 9q37 47 106.5 87t160.5 40q101 0 153.5 -50t52.5 -114zM292 68q0 -31 -28 -53.5t-67 -22.5q-38 0 -66 22.5t-28 53.5q0 32 27.5 54.5t66.5 22.5q40 0 67.5 -22.5t27.5 -54.5z" />
    <glyph glyph-name="at" unicode="@" horiz-adv-x="908" 
d="M875 360q0 -62 -11.5 -115.5t-38 -101.5t-77 -76t-121.5 -28q-56 0 -97 37.5t-42 73.5l-1 25q-33 -33 -84 -33q-76 0 -121.5 52t-45.5 140q0 81 50 133t119 52q41 0 82 -23v16q0 10 10 12l126 2h1q10 0 10 -10v-1l-14 -331q-1 -18 12.5 -28.5t29.5 -12.5q47 -4 69 54
t22 149q0 49 -14.5 92.5t-44 81.5t-83 60t-123.5 22q-149 0 -234 -84.5t-85 -217.5q0 -56 19.5 -103.5t50.5 -79.5t71.5 -54.5t81.5 -33t80 -10.5q5 0 9.5 -3.5t6.5 -7.5l3 -3l-2 -98q-7 -12 -22 -12q-195 0 -313.5 107.5t-118.5 276.5q0 58 17 117.5t54 116.5t89.5 101
t130.5 71t170 27q173 0 276 -99.5t103 -252.5zM487 321v31q-4 17 -17 28.5t-31 11.5q-24 0 -39 -18t-15 -47q0 -26 15.5 -43t37.5 -17q16 0 30.5 15t18.5 39z" />
    <glyph glyph-name="A" unicode="A" horiz-adv-x="675" 
d="M663 32q0 -12 -12 -14l-152 -21h-2q-17 0 -20 12l-28 91q-3 12 -20 12h-2l-182 -17q-15 -2 -21 -15l-39 -88q-5 -11 -18 -11h-4l-156 26q-10 2 -10 12q0 3 1 5l259 629q7 14 21 14h1l228 -6q14 0 18 -16q25 -153 64 -325t74 -285v-3zM395 262v4l-30 126q-1 6 -4 6
q-4 0 -5 -5l-59 -131q-1 -3 -1 -6q0 -9 10 -9l77 4q12 0 12 11z" />
    <glyph glyph-name="B" unicode="B" horiz-adv-x="658" 
d="M635 202q0 -57 -32 -99t-87.5 -64t-117 -32.5t-131.5 -10.5q-146 0 -194 12q-18 8 -21 21q-7 49 -7 294q0 254 20 321q1 6 2 8.5t4.5 4.5t10.5 2q66 6 231 6q154 0 227.5 -43t73.5 -115q0 -23 -5 -43t-13 -34t-19 -27t-21.5 -21t-23 -15t-20.5 -10t-17 -7l-9 -3v-6
q14 -3 34.5 -11t48.5 -24t47 -43.5t19 -60.5zM410 202q0 52 -97 52h-47q-5 0 -9.5 -5t-4.5 -10l-7 -64v-2q0 -12 12 -14l36 -4q9 -1 24 -1q40 0 66.5 13.5t26.5 34.5zM407 457q0 23 -20.5 37t-49.5 14h-2l-43 -1q-13 0 -15 -14l-8 -82v-2q0 -12 11 -12h1l60 3q28 2 47 17.5
t19 39.5z" />
    <glyph glyph-name="C" unicode="C" horiz-adv-x="600" 
d="M585 579q0 -1 -2 -5l-73 -127q-6 -9 -12 -9q-1 0 -3 2q-4 6 -12 15t-29 19t-44 10q-77 0 -131 -68.5t-54 -153.5q0 -53 33 -87.5t85 -34.5q37 0 73.5 15.5t54 29t22.5 20.5q5 5 8 5q5 0 9 -6q4 -5 33 -48.5t29 -44.5q5 -7 5 -13q0 -3 -4 -9q-4 -5 -12.5 -13.5t-30.5 -25
t-48 -29.5t-67 -23t-85 -10q-79 0 -149 30.5t-118 98t-48 160.5q0 158 110 278t257 120q50 0 98 -19t68.5 -34.5t28.5 -25.5q8 -14 8 -17z" />
    <glyph glyph-name="D" unicode="D" horiz-adv-x="629" 
d="M612 359q0 -177 -95 -269.5t-269 -92.5q-118 0 -193 12q-15 4 -15 15l7 593q0 17 14 22q69 26 170 26q86 0 151 -13.5t119 -46.5t82.5 -94.5t28.5 -151.5zM420 352q0 63 -37.5 96.5t-97.5 33.5q-23 0 -23 -15l-8 -259q-1 -5 3 -8t13 -3q69 0 109.5 48t40.5 107z" />
    <glyph glyph-name="E" unicode="E" horiz-adv-x="559" 
d="M540 54q0 -16 -17 -18l-460 -39q-14 0 -16 17q-13 83 -13 280q0 239 22 351q2 18 18 18l429 -7q16 0 16 -16q0 -15 -7 -60t-8 -53t-7 -13.5t-13 -5.5l-217 -12q-18 0 -22 -19q-13 -69 -13 -79q0 -13 14 -13q40 0 120.5 5.5t120.5 5.5q7 0 12 -5.5t5 -12.5l-3 -96
q-2 -18 -19 -20l-239 -27q-7 -1 -11.5 -9.5t-4.5 -16.5q0 -32 19 -32l271 10q7 0 12 -5.5t6 -12.5q5 -100 5 -115z" />
    <glyph glyph-name="F" unicode="F" horiz-adv-x="526" 
d="M512 640q0 -8 -15 -113q-1 -8 -7 -13.5t-13 -5.5l-210 -12q-18 -2 -21 -19q-14 -59 -14 -101q0 -14 15 -14q40 0 91 4.5t91 4.5q7 0 12 -5t5 -12v-1l-3 -108q-1 -8 -6 -14t-12 -6l-191 -3q-7 0 -12 -9t-5 -17l-7 -169q-2 -16 -18 -18l-135 -12h-2q-15 0 -15 16v1l9 631
q0 7 5.5 12.5t12.5 5.5l429 -7q16 0 16 -16z" />
    <glyph glyph-name="G" unicode="G" horiz-adv-x="617" 
d="M602 328v-1l-6 -75q-11 -117 -83 -191t-183 -74q-149 0 -233 93.5t-84 243.5q0 145 97.5 248t230.5 103q103 0 182 -70t79 -154v-14q0 -35 -15 -35l-165 -7q-4 0 -7.5 3.5t-3.5 6.5q0 51 -17 72t-52 21q-32 0 -56 -18.5t-37 -46.5t-19 -55t-6 -51q0 -92 28 -136t77 -44
q36 0 57.5 16.5t23.5 45.5q-8 -1 -27 -1q-27 0 -61 4q-8 0 -8 8l-17 131v1q0 7 8 7h1q109 -19 288 -23q8 -2 8 -8z" />
    <glyph glyph-name="H" unicode="H" horiz-adv-x="627" 
d="M597 643l-29 -615q-2 -14 -14 -14l-160 -17q-5 -1 -9 2.5t-3 8.5l3 197q0 12 -13 12l-109 -6q-13 -2 -13 -14l-20 -214q0 -5 -4.5 -8.5t-9.5 -2.5l-165 17q-13 2 -13 15l23 651q0 13 13 13l199 3q5 0 9 -4t3 -9l-21 -264q-1 -5 3 -9t9 -3l98 5q13 0 13 13l4 247
q0 5 4 8.5t9 3.5l180 -2q13 0 13 -14z" />
    <glyph glyph-name="I" unicode="I" horiz-adv-x="323" 
d="M292 653v-1q-24 -222 -24 -541q0 -69 1 -101q0 -12 -12 -12l-189 1q-11 0 -11 12q-9 99 -9 261q0 225 13 381q2 12 11 12l209 -2q11 0 11 -10z" />
    <glyph glyph-name="J" unicode="J" horiz-adv-x="461" 
d="M427 652v-1h-1l-23 -474q-4 -94 -71 -148t-157 -54q-99 0 -168 62q-4 4 -4 11v1l51 151q2 7 6 7q3 0 5 -2q38 -38 78 -38q32 0 53 26t21 72v3q-5 238 -6 389q0 15 13 15h1l187 -6q15 -2 15 -14z" />
    <glyph glyph-name="K" unicode="K" horiz-adv-x="641" 
d="M642 550q3 -11 -9 -20l-282 -204l268 -213q6 -4 7 -9.5t-2 -7.5l-137 -131q-11 -9 -22 2l-211 217q-1 -25 -1 -73q0 -18 0.5 -51.5t0.5 -49.5q0 -12 -12 -12l-165 2q-12 0 -12 12q-17 97 -17 260q0 226 10 365q2 10 12 11l212 31q4 1 8 -2.5t4 -8.5l-1 -1
q-1 -15 -20 -195l279 224q3 2 9.5 1t8.5 -5z" />
    <glyph glyph-name="L" unicode="L" horiz-adv-x="557" 
d="M522 182v-1l-6 -154q0 -10 -8 -11q-79 -10 -248.5 -20t-217.5 -15q-10 0 -10 8v1q17 205 17 593v77q0 7 11 7l201 6h1q9 0 9 -7q0 -1 -1 -2q-11 -87 -22 -230t-11 -209q0 -36 2 -38q9 -9 86 -9q112 0 187 11h2q8 0 8 -7z" />
    <glyph glyph-name="M" unicode="M" horiz-adv-x="878" 
d="M847 15q0 -8 -5.5 -13t-13.5 -5h-1l-151 5q-8 0 -14 6.5t-7 14.5q-23 111 -25 318q0 8 -3 8t-6 -7l-97 -235q-2 -7 -10.5 -12.5t-16.5 -5.5l-140 6q-18 0 -26 19l-59 167q-1 7 -5 7t-5 -8l-54 -258q-3 -17 -21 -17q-2 0 -3 1l-154 17q-16 4 -16 19v4l125 604q4 18 23 18
h1l192 -13q21 -2 23 -21l50 -284q3 -8 6 -8q4 0 6 6l139 309q6 16 27 16h1l190 -16q8 -1 14 -7t6 -14q3 -467 30 -619v-2z" />
    <glyph glyph-name="N" unicode="N" horiz-adv-x="702" 
d="M672 654l-23 -643q0 -9 -9 -9l-178 -2q-11 0 -20 11q-72 90 -175 282q-5 9 -14 9q-12 0 -12 -15l-21 -290q-2 -9 -10 -9l-178 10q-9 0 -9 9q33 280 35 637q0 8 9 8l218 -10q13 0 17 -10q0 -1 25.5 -66.5t37 -93.5t34 -75.5t40.5 -74.5q6 -10 12 -10q11 0 11 16l4 334
q0 7 7 7q49 -10 123 -10q12 0 35 1.5t36 1.5q5 1 5 -8z" />
    <glyph glyph-name="O" unicode="O" horiz-adv-x="635" 
d="M621 341q0 -166 -84.5 -260t-225.5 -94q-140 0 -219 84.5t-79 230.5q0 153 88.5 264t240.5 111q136 0 207.5 -85t71.5 -251zM413 325q0 79 -16 118t-59 39q-44 0 -75 -55t-31 -140q0 -81 21 -114t60 -33q48 0 74 54t26 131z" />
    <glyph glyph-name="P" unicode="P" horiz-adv-x="566" 
d="M555 430q0 -98 -62 -161t-201 -97q-14 -5 -16 -20l-6 -133q0 -6 -5 -11t-12 -5l-201 -4q-15 0 -15 16l5 602q0 17 15 22q69 26 169 26q157 0 243 -65t86 -170zM382 415q0 26 -25.5 41t-64.5 15q-8 0 -14 -7t-6 -15v-94q0 -17 15 -17h4q35 6 63 26.5t28 50.5z" />
    <glyph glyph-name="Q" unicode="Q" horiz-adv-x="635" 
d="M631 -26l-116 -132q-5 -5 -12 0l-156 146q-12 -1 -36 -1q-140 0 -219 84.5t-79 230.5q0 153 88.5 264t240.5 111q136 0 207.5 -85t71.5 -251q0 -153 -75 -249l85 -106q4 -8 0 -12zM413 325q0 79 -16 118t-59 39q-44 0 -75 -55t-31 -140q0 -81 21 -114t60 -33q48 0 74 54
t26 131z" />
    <glyph glyph-name="R" unicode="R" horiz-adv-x="724" 
d="M706 76q0 -2 -2 -4l-112 -97q-2 -3 -7 -3q-1 0 -5 2q-68 33 -143.5 86.5t-118.5 93.5l-86 -7l-6 -132q0 -9 -10 -11l-166 -9h-1q-9 0 -9 7l11 632q97 38 228 38q69 0 130.5 -12.5t114.5 -39t84 -73.5t31 -110q0 -73 -27 -118t-84 -93q24 -30 76.5 -73t97.5 -71q4 -4 4 -6
zM452 411q0 64 -91 64q-25 0 -52 -7.5t-42.5 -15t-18.5 -10.5t-6 -62t-3 -74q0 -8 35 -8q70 0 124 34t54 79z" />
    <glyph glyph-name="S" unicode="S" horiz-adv-x="636" 
d="M621 391q0 -25 -1 -30q-3 -26 -19 -26h-1l-153 5q-7 0 -12 5t-6 11q-4 47 -36 84t-86 37q-32 0 -51 -14.5t-19 -35.5q0 -42 53 -63q19 -7 57 -19t67 -21.5t65 -26.5t59.5 -35t39.5 -46t16 -61q0 -87 -66 -133.5t-193 -46.5q-131 0 -220 69.5t-93 158.5v1q0 8 5.5 12.5
t11.5 4.5l144 5h1q15 0 18 -14q9 -32 37.5 -57t72.5 -25q20 0 33.5 11t13.5 27q0 14 -22 28.5t-47 23t-56 18.5t-37 12q-79 29 -127.5 75.5t-48.5 129.5q0 102 82 164t193 62q129 0 227 -82.5t98 -207.5z" />
    <glyph glyph-name="T" unicode="T" horiz-adv-x="612" 
d="M588 664q0 -96 -13 -140q-1 -5 -4 -8t-4 -3.5t-7 0t-7 0.5q-123 0 -139 -14q-25 -20 -25 -480q0 -16 -17 -16q-27 0 -81 -3t-82 -3q-19 0 -19 23q0 77 6.5 230.5t6.5 229.5q0 11 -3.5 14t-14.5 3q-33 0 -71 -3.5t-71 -3.5q-15 0 -15 13q0 23 3 70t3 71q0 12 18 12
q204 0 362 6q18 1 51.5 3.5t61 4t51.5 1.5q10 0 10 -7z" />
    <glyph glyph-name="U" unicode="U" horiz-adv-x="671" 
d="M647 554q0 -50 -0.5 -85t-4 -85.5t-10 -87t-18 -80.5t-28 -74.5t-42 -61.5t-57 -49.5t-74.5 -30.5t-95 -12q-144 0 -216.5 85t-72.5 239q0 157 28 328q0 5 6 5q43 -3 94 -3q80 0 110 5h2q6 0 6 -5q-23 -104 -35.5 -192.5t-13.5 -125.5l-2 -36q0 -87 21 -120.5t67 -33.5
q36 0 63 33.5t41.5 89.5t21 117t6.5 127q0 112 -12 160v1q0 6 6 6h1q56 -6 133 -6q48 0 66 2h1q8 0 8 -7v-103z" />
    <glyph glyph-name="V" unicode="V" horiz-adv-x="731" 
d="M728 625v-2l-226 -608q-7 -11 -15 -11l-216 -26h-2q-7 0 -11 8l-235 646q-1 1 -1 4q0 9 10 11l209 17q4 0 7.5 -3t3.5 -6l127 -405q3 -9 8 -9t8 8l113 420q2 6 8 6h1l208 -46q3 -1 3 -4z" />
    <glyph glyph-name="W" unicode="W" horiz-adv-x="1011" 
d="M991 596q0 -4 -1 -7l-248 -567q-5 -16 -23 -16l-149 -8h-1q-16 0 -20 15l-65 326q-2 7 -5 7q-2 0 -5 -7l-101 -329q-4 -15 -21 -15l-180 7q-16 2 -20 18l-141 613v4q0 13 13 13l164 9h1q15 0 19 -16l75 -361q1 -7 4 -7q4 0 5 7l119 365q4 13 19 13h3l164 -27
q18 -2 20 -19l57 -280q2 -7 5 -7t6 6l133 319q5 10 17 10q4 0 6 -1l140 -50q10 -5 10 -15z" />
    <glyph glyph-name="X" unicode="X" horiz-adv-x="765" 
d="M783 609q0 -8 -6 -12q-107 -95 -258 -244q102 -152 194 -267q4 -5 4 -10q0 -11 -11 -14l-164 -65q-2 -1 -8 -1q-14 0 -22 10q-63 75 -149 191q-142 -150 -196 -211q-9 -9 -21 -9q-8 0 -12 4l-134 65q-9 4 -9 13q0 7 5 11l259 277q-109 153 -195 285q-3 6 -3 10q0 7 11 9
l227 16h2q22 0 30 -15q34 -61 85 -138l200 213q6 8 16 8q6 0 14 -5l134 -106q7 -6 7 -15z" />
    <glyph glyph-name="Y" unicode="Y" horiz-adv-x="646" 
d="M653 625v-2l-212 -362l1 -242q0 -6 -9 -8l-196 -32q-7 -1 -9 8l-24 258l-196 387q-1 1 -1 4q0 9 10 11l209 17q9 0 11 -9l85 -208q5 -10 9 -10q5 0 7 9l95 223q2 6 8 6h1l208 -46q3 -1 3 -4z" />
    <glyph glyph-name="Z" unicode="Z" horiz-adv-x="605" 
d="M587 637l-236 -418q-3 -3 -3 -9q0 -13 13 -13h1l201 38q7 0 7 -8v-187q0 -8 -8 -8l-545 -45q-2 0 -6 4.5t-4 6.5l255 431q4 4 4 9q0 13 -14 13l-173 -6q-2 -1 -4.5 1.5t-2.5 7.5l-34 218q-1 2 2 5t5 2q219 -31 532 -27q2 0 6 -5.5t4 -9.5z" />
    <glyph glyph-name="bracketleft" unicode="[" horiz-adv-x="276" 
d="M224 -37h-187v703h187v-66h-47q-21 0 -28.5 -7.5t-7.5 -30.5v-494q0 -39 34 -39h49v-66z" />
    <glyph glyph-name="backslash" unicode="\" horiz-adv-x="343" 
d="M282 5h-32l-220 659h32z" />
    <glyph glyph-name="bracketright" unicode="]" horiz-adv-x="277" 
d="M237 -37h-187v66h47q21 0 28.5 8t7.5 30v494q0 39 -34 39h-49v66h187v-703z" />
    <glyph glyph-name="asciicircum" unicode="^" horiz-adv-x="554" 
d="M527 435h-57l-193 183l-193 -183h-54l215 231h67z" />
    <glyph glyph-name="underscore" unicode="_" horiz-adv-x="367" 
d="M367 -116h-367v80h367v-80z" />
    <glyph glyph-name="grave" unicode="`" horiz-adv-x="252" 
d="M229 517q0 -8 -10 -10l-30 -9q-2 -1 -5 -1q-12 0 -27 11q-64 43 -133 112q-5 3 -5 11t8 10l90 16h5q18 0 24 -13q42 -74 81 -120q2 -4 2 -7z" />
    <glyph glyph-name="a" unicode="a" 
d="M510 476l-17 -459q0 -15 -14 -15l-137 -7q-12 0 -14 12l-1 45q-40 -40 -105 -40q-94 0 -150.5 64.5t-56.5 174.5q0 101 62 165.5t148 64.5q51 0 102 -30v21q0 13 13 15l157 2q13 0 13 -13zM327 234v39q-5 21 -21 35t-39 14q-30 0 -49 -22.5t-19 -57.5q0 -33 19.5 -53.5
t47.5 -20.5q21 0 38.5 18t22.5 48z" />
    <glyph glyph-name="b" unicode="b" horiz-adv-x="537" 
d="M518 239q0 -120 -58.5 -183t-144.5 -63q-57 0 -108 24l1 -16q0 -17 -16 -17l-142 -5q-6 0 -11 4.5t-5 11.5l-3 661q0 6 4.5 11t11.5 5l160 7q7 0 11.5 -4.5t3.5 -10.5l-5 -192q46 20 85 20q90 0 153 -70.5t63 -182.5zM338 242q0 35 -17 55t-47 20q-28 0 -45 -25t-17 -57
q0 -44 18 -67t44 -23q30 0 47 25t17 72z" />
    <glyph glyph-name="c" unicode="c" horiz-adv-x="496" 
d="M479 176v-4q-5 -31 -18 -60.5t-35.5 -59t-61.5 -47t-89 -17.5q-115 0 -184 64t-69 179q0 125 66 200t164 75q92 0 152.5 -52t60.5 -147q0 -23 -3 -33q-6 -23 -31 -21l-112 4q-20 1 -20 26q0 21 -12.5 35.5t-34.5 14.5q-27 0 -46 -30t-19 -80q0 -51 24 -73.5t54 -22.5
q41 0 53 44q4 11 19 11q38 1 70.5 2.5t46.5 1.5l13 1q12 0 12 -11z" />
    <glyph glyph-name="d" unicode="d" horiz-adv-x="542" 
d="M522 659v-1l-22 -641q0 -6 -4.5 -10.5t-9.5 -4.5l-137 -7h-1q-11 0 -13 12l-1 45q-42 -40 -105 -40q-94 0 -150.5 64.5t-56.5 174.5q0 101 62 165.5t148 64.5q51 0 102 -30l5 204q2 14 14 14l156 3h1q12 0 12 -13zM334 237v40q-6 21 -22 35t-39 14q-30 0 -48.5 -22.5
t-18.5 -56.5t19 -54.5t47 -20.5q21 0 39 17.5t23 47.5z" />
    <glyph glyph-name="e" unicode="e" horiz-adv-x="496" 
d="M487 166v-4q-12 -64 -70 -119t-142 -55q-112 0 -182.5 63t-70.5 177q0 116 60.5 193t154.5 77q112 0 163.5 -73.5t51.5 -186.5q0 -31 -27 -31q0 -3 -238 -8q14 -72 78 -72q22 0 39.5 10t21.5 24q2 11 18 11q37 1 68 2t45.5 2t15.5 1h1q13 0 13 -11zM279 297q0 19 -9.5 32
t-27.5 13q-43 0 -53 -54q70 4 87 4q3 0 3 5z" />
    <glyph glyph-name="f" unicode="f" horiz-adv-x="355" 
d="M368 579l-21 -86v-1h1q0 -2 -2.5 -4.5t-4.5 -2.5q-1 0 -2 1q-22 22 -44 22q-40 0 -40 -71v-53l66 4q8 0 8 -7v-1l-10 -135q-2 -8 -8 -8l-55 2l1 -227q0 -14 -13 -14h-1l-161 -7q-15 0 -13 15l1 239l-36 2q-8 0 -8 7v1l6 110q0 8 8 8l31 1l1 106q1 78 45 122t108 44
q31 0 73 -15.5t65 -41.5q6 -6 5 -10z" />
    <glyph glyph-name="g" unicode="g" horiz-adv-x="540" 
d="M514 471l-22 -510q-5 -99 -59.5 -149t-138.5 -50q-38 0 -71.5 11.5t-49.5 25.5q-5 4 -5 12v1l3 140q0 9 6 9q2 0 5 -3q36 -36 75 -36t55.5 22.5t21.5 77.5l2 15l-1 15q-40 -40 -108 -40q-94 0 -151 64.5t-57 174.5q0 101 62 165.5t148 64.5q50 0 99 -28l-1 24q0 15 15 15
l158 -6q14 -2 14 -15zM332 235v38q0 18 -17 30.5t-39 12.5q-28 0 -45.5 -20.5t-17.5 -53.5q0 -31 18 -50t44 -19q21 0 39 17t18 45z" />
    <glyph glyph-name="h" unicode="h" horiz-adv-x="527" 
d="M503 182q0 -137 -6 -183q-2 -8 -11 -8h-1l-156 12q-7 0 -7 7v1q9 63 9 118q0 113 -15 159t-53 46q-52 0 -52 -97l1 -221q0 -13 -11 -13h-1l-147 4q-11 0 -13 13l-25 660q0 12 12 12l165 -3q11 0 13 -12l4 -211q41 23 78 23q102 0 159 -69t57 -238z" />
    <glyph glyph-name="i" unicode="i" horiz-adv-x="279" 
d="M243 419l-11 -411q0 -11 -11 -11h-1l-151 4q-11 0 -13 12l-11 409q0 12 12 12l174 -2q5 0 8.5 -4t3.5 -9zM259 572q0 -42 -28 -71.5t-68 -29.5q-39 0 -67 29.5t-28 71.5q0 41 28 70.5t67 29.5q40 0 68 -29.5t28 -70.5z" />
    <glyph glyph-name="j" unicode="j" horiz-adv-x="272" 
d="M238 442l-26 -461q-5 -100 -62 -144.5t-173 -45.5q-8 0 -8 6l-8 121q0 5 8 8q40 2 62.5 23t22.5 75v3l-2 421v1q0 13 13 13h1l158 -5q14 0 14 -15zM227 578q0 -35 -24.5 -59t-60.5 -24q-35 0 -59.5 24.5t-24.5 58.5t25 59t59 25q36 0 60.5 -24.5t24.5 -59.5z" />
    <glyph glyph-name="k" unicode="k" horiz-adv-x="542" 
d="M522 62q0 -6 -5 -10l-109 -92q-4 -4 -11 -4q-8 0 -13 5l-169 156q-4 4 -7 4q-6 0 -6 -9v-95q0 -16 -16 -16l-141 3q-6 0 -11 5t-5 12l4 620q0 7 5 11.5t12 4.5l160 23h1q6 0 11 -4.5t4 -10.5v-1l-12 -307v-1q0 -8 4 -8q1 0 7 4l114 109q12 10 24 10h4l138 -54q9 -5 9 -10
q0 -4 -3 -7l-174 -158q-5 -4 -5 -10q0 -8 5 -11l180 -149q5 -2 5 -10z" />
    <glyph glyph-name="l" unicode="l" horiz-adv-x="269" 
d="M232 646l-13 -638q0 -11 -12 -11l-145 4q-5 0 -9 3.5t-4 8.5l-10 635v1q0 12 12 12l168 -3q5 0 9 -3.5t4 -8.5z" />
    <glyph glyph-name="m" unicode="m" horiz-adv-x="789" 
d="M767 170q0 -129 -7 -183q-2 -9 -11 -9h-1l-163 12q-6 2 -6 7q8 128 8 167q0 96 -11 134t-44 38q-7 0 -13.5 -2.5t-10.5 -8t-7 -11t-4.5 -14.5t-3 -15.5t-1.5 -16.5v-15.5v-14.5v-11q0 -7 0.5 -22t0.5 -23q0 -137 -6 -183q-2 -8 -11 -8h-1l-159 11q-6 0 -6 7v1
q7 101 7 162q0 106 -10 141t-46 35q-25 0 -35.5 -21.5t-10.5 -72.5v-2l1 -236q0 -13 -12 -13l-156 4q-5 0 -8.5 4t-3.5 9l-11 438v1q0 10 12 12l165 16q10 0 12 -13v-18q30 30 82 30q47 0 78.5 -14.5t57.5 -49.5q53 51 125 51q49 0 85 -14t65.5 -47t44.5 -93.5t15 -148.5z
" />
    <glyph glyph-name="n" unicode="n" horiz-adv-x="547" 
d="M524 182q0 -148 -6 -183q-2 -8 -11 -8l-168 11q-7 0 -7 7v1q5 28 5 132q0 122 -10.5 164t-49.5 42q-33 0 -47.5 -22.5t-13.5 -73.5l1 -236q0 -13 -12 -13l-156 4q-12 0 -12 13l-12 465v1q0 11 12 11l165 -2q11 -2 13 -13v-26q46 23 107 23q49 0 84 -13t62.5 -45
t41.5 -91.5t14 -147.5z" />
    <glyph glyph-name="o" unicode="o" horiz-adv-x="508" 
d="M487 237q0 -116 -60 -182.5t-156 -66.5q-101 0 -174 67t-73 182q0 121 62.5 190.5t170.5 69.5q104 0 167 -67.5t63 -192.5zM317 238q0 32 -18.5 53t-44.5 21q-30 0 -46.5 -22t-16.5 -57q0 -32 19 -51.5t47 -19.5q27 0 43.5 21t16.5 55z" />
    <glyph glyph-name="p" unicode="p" horiz-adv-x="541" 
d="M522 239q0 -120 -58.5 -183t-145.5 -63q-57 0 -107 24l-4 -215q0 -17 -15 -17l-144 -5q-6 0 -10.5 4.5t-4.5 11.5l-4 699q0 6 5 11t11 6l161 6q6 1 11 -3.5t4 -11.5v-31q33 15 85 15q90 0 153 -68t63 -180zM337 241q0 35 -16.5 54.5t-45.5 19.5q-27 0 -43 -24.5
t-16 -55.5q0 -42 17 -65t43 -23q28 0 44.5 25t16.5 69z" />
    <glyph glyph-name="q" unicode="q" 
d="M510 476l-24 -683q-2 -14 -14 -14l-138 -7h-1q-12 0 -12 13l6 267q-40 -40 -105 -40q-94 0 -150.5 64.5t-56.5 174.5q0 101 62 165.5t148 64.5q51 0 102 -30v21q0 13 13 15l157 2q13 0 13 -13zM327 234v39q-5 21 -21 35t-39 14q-30 0 -49 -22.5t-19 -57.5
q0 -33 19.5 -53.5t47.5 -20.5q21 0 38.5 18t22.5 48z" />
    <glyph glyph-name="r" unicode="r" horiz-adv-x="377" 
d="M351 486v-1q0 -7 -7 -147q0 -5 -8 -7q-128 -4 -126 -162q1 -66 1 -151q0 -13 -14 -13l-141 -3h-1q-13 0 -13 12l-15 453q0 12 12 12h1l143 -7q14 0 14 -11v-24q1 1 2 3q38 54 122 54q9 0 23 -2q7 0 7 -6z" />
    <glyph glyph-name="s" unicode="s" horiz-adv-x="482" 
d="M462 302q0 -23 -2 -33q-6 -23 -32 -21l-111 4q-9 0 -13.5 4t-5.5 8.5t-1 13.5q0 26 -13 45t-34 19q-23 0 -34 -10.5t-11 -23.5q0 -17 12.5 -29t23 -16t31.5 -11q9 -3 39.5 -11.5t43.5 -13t37 -16.5t34.5 -24t20 -33t9.5 -47q0 -69 -60.5 -104t-143.5 -35
q-107 0 -170.5 42t-63.5 108q0 33 25 34l102 1q15 1 20.5 -6.5t5.5 -22.5q0 -16 18.5 -27t47.5 -11q16 0 26.5 4t14 7.5t3.5 6.5q0 12 -15 21.5t-31.5 14.5t-38.5 10t-27 7q-60 20 -98 56t-38 103q0 90 55 144t149 54q96 0 160.5 -53.5t64.5 -158.5z" />
    <glyph glyph-name="t" unicode="t" horiz-adv-x="382" 
d="M359 330q0 -12 -11 -12l-60 1q-12 0 -12 -12l-18 -304q-2 -11 -11 -11h-1l-146 10q-11 0 -11 11v1l7 295v1q0 10 -12 12h-50q-12 0 -12 11l-8 137v1q0 11 11 11l62 -1q11 0 11 11l4 155q0 12 11 12l169 -2q10 0 10 -11l-8 -156v-1q0 -12 11 -12h52q11 0 11 -12z" />
    <glyph glyph-name="u" unicode="u" horiz-adv-x="542" 
d="M513 478l-16 -485q0 -5 -4 -9.5t-10 -4.5h-1l-146 5q-6 0 -10 4.5t-4 9.5v20q-36 -18 -76 -18q-122 0 -173 78.5t-51 227.5q0 82 14 152q2 7 9 7h1l171 -13q9 0 9 -8v-2q-17 -91 -17 -192q0 -116 57 -116q56 0 56 81v252q2 15 15 15l163 9q0 1 1 1q12 0 12 -14z" />
    <glyph glyph-name="v" unicode="v" horiz-adv-x="568" 
d="M550 472q0 -5 -1 -6l-176 -451q-6 -17 -25 -17h-1l-160 6q-20 0 -25 18l-157 432q-1 3 -1 7q0 6 4.5 10.5t11.5 4.5l164 -3q20 -2 25 -19l70 -240l81 259q5 19 24 19h1l150 -5q15 0 15 -15z" />
    <glyph glyph-name="w" unicode="w" horiz-adv-x="761" 
d="M749 468q0 -1 -2 -11l-139 -424q-2 -8 -9.5 -14t-15.5 -6h-1l-123 7q-17 0 -27 21l-63 145l-49 -168q-6 -21 -25 -21l-116 1q-19 2 -26 22q-32 71 -73.5 196t-65.5 213q-2 6 -2 10q0 19 26 19l123 -1q19 0 26 -22q14 -76 59 -198l46 165q8 23 25 21l116 -1q17 0 25 -21
l54 -154l74 229q7 20 25 20h1l115 -8q22 -2 22 -20z" />
    <glyph glyph-name="x" unicode="x" horiz-adv-x="633" 
d="M627 455l-201 -203q-9 -9 -2 -20l143 -205q6 -10 -6 -12l-199 -28q-13 -2 -20 9l-60 92q-7 11 -16 2l-86 -87q-8 -8 -22 -6l-146 48q-12 4 -3 13l164 175q9 9 2 20l-132 204q-7 11 5 13l182 23q13 2 20 -9l60 -87q8 -10 17 0l78 84q9 9 22 7l196 -22q13 -2 4 -11z" />
    <glyph glyph-name="y" unicode="y" horiz-adv-x="522" 
d="M492 478l-23 -695q0 -5 -4.5 -9.5t-9.5 -3.5h-1l-134 4q-14 0 -14 15l7 229q-32 -16 -77 -16q-59 0 -102 22.5t-66.5 62t-34 85.5t-10.5 101q0 88 23 205q2 7 8 7l2 -1l176 -12q8 0 8 -8v-2q-32 -155 -32 -223q0 -45 11 -75t31 -30q52 0 52 81v252q0 15 15 15l161 9l1 1
q13 0 13 -14z" />
    <glyph glyph-name="z" unicode="z" horiz-adv-x="498" 
d="M484 463q0 -1 -1 -2l-190 -302q-1 -2 -1 -4q0 -4 5 -4l142 4h1q10 0 10 -10v-136q0 -10 -11 -10l-407 3q-4 0 -9 4.5t-5 8.5q0 2 1 2l195 299q2 1 2 4q0 4 -6 4l-140 -4q-11 0 -11 11l-1 141q0 10 11 10l403 -3q4 0 8 -5.5t4 -10.5z" />
    <glyph glyph-name="braceleft" unicode="{" horiz-adv-x="417" 
d="M343 -41q-121 0 -151 18q-46 28 -46 122v88q0 37 -6 57.5t-25 33.5q-24 17 -85 26v23q62 9 74 15q42 22 42 102v88q0 50 10 78t36 43q31 18 151 20v-19q-54 -3 -77 -21q-16 -14 -20.5 -37t-4.5 -70v-39v-10q0 -32 -1 -46.5t-5.5 -34.5t-15.5 -33t-30 -23q-26 -15 -68 -24
q48 -12 70 -25q28 -17 39 -51.5t11 -102.5v-40q0 -48 5 -70.5t25 -34.5q21 -12 72 -14v-19z" />
    <glyph glyph-name="bar" unicode="|" horiz-adv-x="417" 
d="M231 -195h-44v832h44v-832z" />
    <glyph glyph-name="braceright" unicode="}" horiz-adv-x="417" 
d="M402 306q-57 -7 -85 -25q-20 -13 -25.5 -33.5t-5.5 -59.5v-87q0 -94 -47 -122q-30 -18 -151 -18v19q49 1 73 14q20 12 25 34.5t5 70.5v40q0 69 11 103t39 51q22 14 70 24q-45 11 -69 25q-15 8 -25 19t-15 21t-7.5 28t-3 29t-0.5 36v13v39q0 48 -4.5 71.5t-20.5 36.5
q-21 17 -78 21v19q123 -5 151 -20q26 -14 36.5 -42.5t10.5 -79.5v-87q0 -81 41 -102q16 -8 75 -16v-22z" />
    <glyph glyph-name="asciitilde" unicode="~" horiz-adv-x="539" 
d="M521 627q-14 -36 -47 -63t-83 -27q-39 0 -118.5 25.5t-116.5 25.5q-62 0 -104 -64l-23 13q31 52 62.5 73.5t75.5 21.5q40 0 116 -25t115 -25q62 0 102 58z" />
    <glyph glyph-name="nbspace" unicode="&#xa0;" horiz-adv-x="237" 
 />
    <glyph glyph-name="exclamdown" unicode="&#xa1;" horiz-adv-x="230" 
d="M190 600q0 -28 -20.5 -47t-49.5 -19t-49.5 19t-20.5 47q0 27 20.5 46.5t49.5 19.5t49.5 -19.5t20.5 -46.5zM183 3q0 -11 -11 -11l-130 9q-12 2 -10 12l34 484q0 12 11 12l81 -2q12 0 12 -12z" />
    <glyph glyph-name="cent" unicode="&#xa2;" horiz-adv-x="492" 
d="M480 271v-4q-11 -64 -52 -117t-118 -64l2 -80q0 -7 -5 -12.5t-11 -4.5l-93 14q-16 4 -16 17l-2 76q-76 22 -119 81t-43 149q0 102 44.5 171.5t117.5 92.5v72q0 7 5 12t12 4l105 -16q18 -4 17 -17l-5 -52q67 -16 107 -65t40 -125q0 -23 -3 -34q-5 -21 -31 -21l-112 5
q-13 1 -16.5 6.5t-3.5 18.5q0 21 -13 36t-34 15q-27 0 -46 -30.5t-19 -80.5q0 -51 24 -73.5t54 -22.5q41 0 53 44q4 11 18 12q25 1 47 1.5t36.5 1t25.5 1t16 0.5h5q13 0 13 -11z" />
    <glyph glyph-name="sterling" unicode="&#xa3;" horiz-adv-x="567" 
d="M522 577q0 -3 -1 -5q-2 -3 -34 -63.5t-34 -63.5q-4 -8 -11 -8h-2q-4 7 -11.5 15.5t-26 19t-40.5 10.5q-52 0 -75.5 -19t-29.5 -69h68q6 0 11 -5t4 -12l-14 -130q-2 -8 -6 -13t-10 -4l-58 3v-46q8 -9 79 -9q101 0 172 11h1q8 0 8 -7v-1l-6 -154q0 -10 -7 -11
q-160 -21 -427 -35h-1q-8 0 -8 8v1q2 21 0 132t-2 129l-28 2q-15 2 -15 17l-1 102q0 7 4.5 11.5t10.5 4.5l30 1q6 141 76 212.5t199 71.5q46 0 89 -18.5t63 -35.5t26 -26q7 -14 7 -16z" />
    <glyph glyph-name="yen" unicode="&#xa5;" horiz-adv-x="685" 
d="M662 625v-2l-195 -332l76 1q15 0 17 -16l5 -52q1 -6 -4.5 -11t-12.5 -6l-97 -5v-59l105 3q7 0 11.5 -5t4.5 -12l5 -52q2 -14 -16 -16l-110 -6v-36q0 -6 -9 -8l-196 -32q-7 -2 -9 8l-5 57l-105 -6q-6 -1 -10.5 4.5t-5.5 12.5l-10 64q-1 7 4 12t12 5l106 2l-5 52l-103 -5
q-6 -1 -10.5 4t-6.5 13l-10 64q-1 7 4.5 11.5t12.5 4.5l88 2l-176 348v4q0 10 9 11l209 17q7 0 12 -9l85 -208q3 -10 8 -10t7 9l95 223q2 6 8 6h2l207 -46q3 -1 3 -4z" />
    <glyph glyph-name="section" unicode="&#xa7;" horiz-adv-x="332" 
d="M310 312q0 -39 -30 -69.5t-91 -30.5q81 -61 81 -120q0 -40 -33 -71t-100 -31q-54 0 -81.5 24.5t-27.5 58.5q0 16 9.5 31t28.5 15q39 0 39 -37q0 -13 -12 -29.5t-12 -19.5q0 -9 17.5 -17.5t43.5 -8.5q16 0 31.5 3.5t31 17.5t15.5 37q0 25 -14 47t-58 60l-73 64
q-72 65 -72 116q0 38 30.5 69.5t88.5 31.5q-43 37 -61.5 63t-18.5 58q0 48 35.5 76.5t86.5 28.5q41 0 74.5 -24t33.5 -59q0 -20 -12 -33t-33 -13q-14 0 -24.5 9t-10.5 21t16 28q11 11 11 28q0 10 -18.5 17.5t-38.5 7.5q-27 0 -48 -13.5t-21 -44.5q0 -26 13 -48.5t61 -62.5
l73 -60q70 -57 70 -120zM262 297q-2 25 -28.5 57.5t-48.5 50.5t-41 31q-42 0 -67 -15t-25 -41t47.5 -80t72.5 -68q32 0 61 14.5t29 50.5z" />
    <glyph glyph-name="dieresis" unicode="&#xa8;" horiz-adv-x="344" 
d="M322 594q0 -24 -18.5 -40.5t-44.5 -16.5t-44 16.5t-18 40.5t18 41t44 17t44.5 -17t18.5 -41zM148 594q0 -24 -18 -40.5t-44 -16.5t-44.5 16.5t-18.5 40.5t18.5 41t44.5 17t44 -17t18 -41z" />
    <glyph glyph-name="copyright" unicode="&#xa9;" horiz-adv-x="745" 
d="M715 328q0 -143 -102 -244.5t-245 -101.5t-244.5 101.5t-101.5 244.5t101.5 245t244.5 102t245 -102t102 -245zM652 328q0 117 -83 200t-200 83t-200 -83t-83 -200t83 -200t200 -83t200 83t83 200zM522 481q0 -3 -1 -4l-44 -77q-4 -5 -8 -5h-2q-20 27 -52 27
q-47 0 -80 -42t-33 -93q0 -32 20.5 -53.5t51.5 -21.5q22 0 45 9.5t33.5 17.5t14.5 13q3 3 4 3l6 -4q3 -4 19 -29t18 -28q3 -3 3 -7q0 -5 -2 -6q-7 -8 -19 -19t-49 -27t-80 -16q-77 0 -135.5 46.5t-58.5 130.5q0 96 67.5 169.5t157.5 73.5q31 0 60 -11.5t41.5 -21t17.5 -15.5
q5 -7 5 -10z" />
    <glyph glyph-name="ordfeminine" unicode="&#xaa;" horiz-adv-x="457" 
d="M433 655l-14 -390q0 -5 -3.5 -9t-8.5 -4l-116 -5h-1q-11 0 -11 10l-1 38q-34 -34 -89 -34q-80 0 -128.5 55t-48.5 148q0 85 53 140t127 55q43 0 86 -25l-1 18q0 12 12 12l133 3q11 0 11 -12zM421 168q0 -7 -5 -11.5t-12 -4.5l-332 -15q-13 0 -17 17l-10 52q-1 7 4 11.5
t13 4.5l342 -5q7 0 12 -5t5 -12v-32zM278 449v34q-11 41 -51 41q-26 0 -42 -18.5t-16 -48.5q0 -29 16.5 -46.5t40.5 -17.5q17 0 32.5 15t19.5 41z" />
    <glyph glyph-name="guillemotleft" unicode="&#xab;" horiz-adv-x="503" 
d="M456 154q0 -2 -1 -2l-2 -41q0 -17 -9 -17q-2 0 -7 3l-173 139q-14 9 -16 37l-2 45v2q0 25 16 36l177 130q1 0 3.5 1.5t3.5 1.5q9 0 9 -17v-49q0 -32 -13 -42l-87 -68q-5 -4 -5 -16q0 -11 5 -17l87 -85q14 -14 14 -41zM242 154v-2l-2 -41q0 -17 -9 -17q-3 0 -7 3l-173 139
q-14 9 -16 37l-3 45v2q0 24 16 36l178 130l6 3q10 0 10 -17v-49q0 -31 -14 -42l-86 -68q-5 -3 -5 -16q0 -12 5 -17l86 -85q14 -12 14 -41z" />
    <glyph glyph-name="registered" unicode="&#xae;" horiz-adv-x="524" 
d="M499 435q0 -97 -69 -166.5t-166 -69.5q-98 0 -167 69.5t-69 166.5t69.5 166t166.5 69t166 -69t69 -166zM457 435q0 80 -56.5 136.5t-136.5 56.5t-136.5 -56.5t-56.5 -136.5t56.5 -136.5t136.5 -56.5t136.5 56.5t56.5 136.5zM401 343v-1l-43 -36l-2 -1q-9 0 -46.5 26.5
t-54.5 41.5l-32 -2v-17t-1.5 -26t-4.5 -11q-6 0 -28.5 -2t-34.5 -2l-3 3l4 237q37 15 86 15q53 0 94 -20.5t41 -67.5t-42 -80q20 -25 65 -54zM306 470q0 24 -34 24q-7 0 -23.5 -4.5t-19.5 -7.5q-3 -6 -3 -52q6 -3 13 -3q21 0 44 11.5t23 31.5z" />
    <glyph glyph-name="macron" unicode="&#xaf;" horiz-adv-x="310" 
d="M276 544q0 -7 -5.5 -12.5t-13.5 -5.5h-214q-7 0 -12.5 5t-5.5 13v52q0 17 18 17h214q8 0 13.5 -5t5.5 -12v-52z" />
    <glyph glyph-name="degree" unicode="&#xb0;" horiz-adv-x="405" 
d="M385 489q0 -76 -54 -130t-129 -54q-77 0 -131 53.5t-54 129.5t54 130t130 54t130 -53.5t54 -129.5zM299 490q0 40 -28.5 68.5t-68.5 28.5t-68 -28.5t-28 -68.5t28 -68.5t68 -28.5t68.5 28.5t28.5 68.5z" />
    <glyph glyph-name="acute" unicode="&#xb4;" horiz-adv-x="263" 
d="M238 628q0 -8 -6 -12l-127 -111q-13 -11 -28 -11h-3l-35 3q-10 1 -10 10q0 3 3 8l85 131q11 13 25 13h4l86 -22q6 -1 6 -9z" />
    <glyph glyph-name="paragraph" unicode="&#xb6;" horiz-adv-x="417" 
d="M382 573h-52v-573h-33v573h-75v-573h-35v319q-72 1 -112.5 38.5t-40.5 103.5q0 56 39.5 98.5t119.5 42.5h189v-29z" />
    <glyph glyph-name="periodcentered" unicode="&#xb7;" horiz-adv-x="277" 
d="M235 317q0 -32 -27.5 -54.5t-66.5 -22.5t-66.5 22.5t-27.5 54.5q0 31 27.5 53t66.5 22t66.5 -22t27.5 -53z" />
    <glyph glyph-name="cedilla" unicode="&#xb8;" horiz-adv-x="239" 
d="M219 -113q0 -47 -34 -72t-82 -25q-32 0 -59 12q-18 6 -18 20v1l5 43q1 9 6 9t6 -3q30 -15 52 -15q37 0 37 31q0 30 -55 30q-2 0 -7.5 -0.5t-8.5 -0.5q-14 0 -14 8v1l5 74h53l3 -24q111 0 111 -89z" />
    <glyph glyph-name="ordmasculine" unicode="&#xba;" horiz-adv-x="432" 
d="M414 447q0 -98 -51 -154.5t-133 -56.5q-86 0 -147.5 56.5t-61.5 154.5q0 103 52.5 161.5t144.5 58.5q89 0 142.5 -57t53.5 -163zM412 162q0 -17 -16 -17l-354 -13q-13 0 -17 17l-10 52q-1 7 4 11.5t13 4.5l364 -7q7 0 11.5 -5t4.5 -12v-31zM269 448q0 27 -15.5 45
t-37.5 18q-25 0 -39.5 -18.5t-14.5 -48.5q0 -27 16.5 -44t39.5 -17t37 18t14 47z" />
    <glyph glyph-name="guillemotright" unicode="&#xbb;" horiz-adv-x="532" 
d="M483 262q0 -24 -16 -35l-177 -130q-4 -3 -7 -3q-10 0 -10 17v49q0 31 14 42l87 67q5 5 5 16q0 12 -5 17l-87 86q-14 16 -14 41v2l3 41q0 17 9 17q1 0 3.5 -1.5t3.5 -1.5l173 -139q14 -12 16 -37l2 -45v-3zM258 262q0 -24 -16 -35l-178 -130q-3 -3 -7 -3q-9 0 -9 17v49
q0 32 14 42l86 67q6 5 6 16q0 12 -6 17l-86 86q-14 16 -14 41v2l2 41q2 17 10 17q1 0 3.5 -1.5t3.5 -1.5l172 -139q15 -12 17 -37l2 -45v-3z" />
    <glyph glyph-name="questiondown" unicode="&#xbf;" horiz-adv-x="500" 
d="M393 586q0 -32 -27.5 -54t-66.5 -22t-66.5 22t-27.5 54t27.5 54t66.5 22t66.5 -22t27.5 -54zM486 129q0 -6 -3 -9q-36 -47 -105.5 -87.5t-160.5 -40.5q-100 0 -153 50.5t-53 114.5q0 45 16.5 78.5t41.5 52t53.5 36t53.5 30t41.5 34t16.5 49.5q0 10 -3 18.5t-6.5 13.5
t-3.5 6q0 8 8 8q3 0 5 -1l127 -33q21 -4 21 -57q0 -37 -17.5 -66.5t-42 -48.5t-49 -34.5t-42 -31.5t-17.5 -32q0 -28 41 -28q60 0 127 75l9 3q2 0 6 -2l88 -94q1 -1 1 -4z" />
    <glyph glyph-name="Agrave" unicode="&#xc0;" horiz-adv-x="675" 
d="M663 32q0 -12 -12 -14l-152 -21h-2q-17 0 -20 12l-28 91q-3 12 -20 12h-2l-182 -17q-15 -2 -21 -15l-39 -88q-5 -11 -18 -11h-4l-156 26q-10 2 -10 12q0 3 1 5l259 629q7 14 21 14h1l228 -6q14 0 18 -16q25 -153 64 -325t74 -285v-3zM454 727q0 -7 -11 -10l-29 -9h-5
q-9 0 -27 10q-64 44 -134 112q-5 5 -5 12q0 8 9 9l90 16h4q18 0 25 -13q41 -73 80 -120q3 -3 3 -7zM395 262v4l-30 126q-1 6 -4 6q-4 0 -5 -5l-59 -131q-1 -3 -1 -6q0 -9 10 -9l77 4q12 0 12 11z" />
    <glyph glyph-name="Aacute" unicode="&#xc1;" horiz-adv-x="675" 
d="M663 32q0 -12 -12 -14l-152 -21h-2q-17 0 -20 12l-28 91q-3 12 -20 12h-2l-182 -17q-15 -2 -21 -15l-39 -88q-5 -11 -18 -11h-4l-156 26q-10 2 -10 12q0 3 1 5l259 629q7 14 21 14h1l228 -6q14 0 18 -16q25 -153 64 -325t74 -285v-3zM564 840q0 -7 -6 -13l-126 -110
q-13 -11 -29 -11h-3l-34 4q-11 2 -11 9q0 2 2 8l87 130q9 15 24 15h2l2 -1l85 -22q7 -1 7 -9zM395 262v4l-30 126q-1 6 -4 6q-4 0 -5 -5l-59 -131q-1 -3 -1 -6q0 -9 10 -9l77 4q12 0 12 11z" />
    <glyph glyph-name="Acircumflex" unicode="&#xc2;" horiz-adv-x="675" 
d="M663 32q0 -12 -12 -14l-152 -21h-2q-17 0 -20 12l-28 91q-3 12 -20 12h-2l-182 -17q-15 -2 -21 -15l-39 -88q-5 -11 -18 -11h-4l-156 26q-10 2 -10 12q0 3 1 5l259 629q7 14 21 14h1l228 -6q14 0 18 -16q25 -153 64 -325t74 -285v-3zM527 713q0 -9 -11 -9h-34
q-20 0 -30 14l-48 55q-5 6 -11 6q-7 0 -12 -6l-60 -55q-19 -14 -29 -14h-1l-29 2q-12 2 -12 10q0 4 2 6l97 142q12 15 27 17l31 2h2q15 0 25 -16l92 -147q1 -2 1 -7zM395 262v4l-30 126q-1 6 -4 6q-4 0 -5 -5l-59 -131q-1 -3 -1 -6q0 -9 10 -9l77 4q12 0 12 11z" />
    <glyph glyph-name="Atilde" unicode="&#xc3;" horiz-adv-x="675" 
d="M663 32q0 -12 -12 -14l-152 -21h-2q-17 0 -20 12l-28 91q-3 12 -20 12h-2l-182 -17q-15 -2 -21 -15l-39 -88q-5 -11 -18 -11h-4l-156 26q-10 2 -10 12q0 3 1 5l259 629q7 14 21 14h1l228 -6q14 0 18 -16q25 -153 64 -325t74 -285v-3zM537 822q0 -42 -27 -73.5t-71 -31.5
q-19 0 -55 11t-54 11q-25 0 -34 -23q-4 -9 -12 -9h-27q-13 0 -13 11q0 36 26.5 68t62.5 32q20 0 56.5 -12t55.5 -12q25 0 38 32q3 7 14 7l31 1q3 1 6 -2.5t3 -9.5zM395 262v4l-30 126q-1 6 -4 6q-4 0 -5 -5l-59 -131q-1 -3 -1 -6q0 -9 10 -9l77 4q12 0 12 11z" />
    <glyph glyph-name="Adieresis" unicode="&#xc4;" horiz-adv-x="675" 
d="M663 32q0 -12 -12 -14l-152 -21h-2q-17 0 -20 12l-28 91q-3 12 -20 12h-2l-182 -17q-15 -2 -21 -15l-39 -88q-5 -11 -18 -11h-4l-156 26q-10 2 -10 12q0 3 1 5l259 629q7 14 21 14h1l228 -6q14 0 18 -16q25 -153 64 -325t74 -285v-3zM369 772q0 -24 -18 -41t-44 -17
t-44.5 17t-18.5 41q0 23 18.5 40t44.5 17q25 0 43.5 -17t18.5 -40zM542 772q0 -24 -18 -41t-44 -17t-44.5 17t-18.5 41q0 23 18.5 40t44.5 17q25 0 43.5 -17t18.5 -40zM395 262v4l-30 126q-1 6 -4 6q-4 0 -5 -5l-59 -131q-1 -3 -1 -6q0 -9 10 -9l77 4q12 0 12 11z" />
    <glyph glyph-name="Aring" unicode="&#xc5;" horiz-adv-x="675" 
d="M663 32q0 -12 -12 -14l-152 -21h-2q-17 0 -20 12l-28 91q-3 12 -20 12h-2l-182 -17q-15 -2 -21 -15l-39 -88q-5 -11 -18 -11h-4l-156 26q-10 2 -10 12q0 3 1 5l259 629q7 14 21 14h1l228 -6q14 0 18 -16q25 -153 64 -325t74 -285v-3zM512 837q0 -52 -36.5 -88.5
t-89.5 -36.5q-52 0 -88.5 36t-36.5 89t36.5 89t88.5 36q53 0 89.5 -36.5t36.5 -88.5zM439 837q0 22 -15.5 38t-37.5 16t-38 -16t-16 -38t16 -37.5t38 -15.5t37.5 15.5t15.5 37.5zM395 262v4l-30 126q-1 6 -4 6q-4 0 -5 -5l-59 -131q-1 -3 -1 -6q0 -9 10 -9l77 4q12 0 12 11z
" />
    <glyph glyph-name="AE" unicode="&#xc6;" horiz-adv-x="957" 
d="M937 54q0 -16 -17 -18q-30 -3 -146.5 -14t-203.5 -18t-126 -7q-18 0 -18 30q0 8 2 28.5t2 29.5q0 27 -18 27h-2l-148 -17q-14 -1 -26 -15l-66 -88q-9 -11 -22 -11q-17 0 -72 16t-74 29q-8 4 -8 8q0 7 186.5 286.5t223.5 332.5q9 14 25 14q261 -8 472 -11q6 0 11 -4.5
t5 -11.5q0 -15 -7 -60t-8 -53t-7 -13.5t-13 -5.5l-218 -12q-16 0 -22 -19q-13 -69 -13 -79q0 -13 14 -13q40 0 120.5 5.5t121.5 5.5q7 0 12 -5t5 -12v-1l-4 -96q-2 -18 -19 -20l-238 -27q-7 -1 -12.5 -9.5t-5.5 -16.5q0 -32 19 -32h1l270 10h1q7 0 12.5 -5.5t5.5 -12.5
q5 -100 5 -115zM432 392q0 5 -2 6q-7 -3 -52.5 -70.5t-45.5 -74.5q0 -6 7 -6l68 4q14 0 16 15z" />
    <glyph glyph-name="Ccedilla" unicode="&#xc7;" horiz-adv-x="600" 
d="M585 579q0 -1 -2 -5l-73 -127q-6 -9 -12 -9q-1 0 -3 2q-4 6 -12 15t-29 19t-44 10q-77 0 -131 -68.5t-54 -153.5q0 -53 33 -87.5t85 -34.5q37 0 73.5 15.5t54 29t22.5 20.5q5 5 8 5q5 0 9 -6q4 -5 33 -48.5t29 -44.5q5 -7 5 -13q0 -3 -4 -9q-4 -5 -12 -13.5t-29.5 -24.5
t-47 -29t-65.5 -23t-84 -11l2 -18q111 0 111 -88q0 -48 -34 -73t-82 -25q-32 0 -60 12q-18 7 -17 20v1l5 43q1 9 7 9q1 0 5 -2q26 -16 52 -16q38 0 38 31q0 30 -55 30q-3 0 -9 -0.5t-8 -0.5q-14 0 -14 8v1l5 72q-111 15 -188.5 89t-77.5 196q0 158 110 278t257 120
q50 0 98 -19t68.5 -34.5t28.5 -25.5q8 -14 8 -17z" />
    <glyph glyph-name="Egrave" unicode="&#xc8;" horiz-adv-x="559" 
d="M540 54q0 -16 -17 -18l-460 -39q-14 0 -16 17q-13 83 -13 280q0 239 22 351q2 18 18 18l429 -7q16 0 16 -16q0 -15 -7 -60t-8 -53t-7 -13.5t-13 -5.5l-217 -12q-18 0 -22 -19q-13 -69 -13 -79q0 -13 14 -13q40 0 120.5 5.5t120.5 5.5q7 0 12 -5.5t5 -12.5l-3 -96
q-2 -18 -19 -20l-239 -27q-7 -1 -11.5 -9.5t-4.5 -16.5q0 -32 19 -32l271 10q7 0 12 -5.5t6 -12.5q5 -100 5 -115zM377 717q0 -7 -10 -10l-30 -9h-3l-2 -1q-12 0 -27 11q-76 52 -133 112q-5 4 -5 11q0 9 7 10l91 16h4q17 0 24 -13q42 -74 81 -120q3 -3 3 -7z" />
    <glyph glyph-name="Eacute" unicode="&#xc9;" horiz-adv-x="559" 
d="M540 54q0 -16 -17 -18l-460 -39q-14 0 -16 17q-13 83 -13 280q0 239 22 351q2 18 18 18l429 -7q16 0 16 -16q0 -15 -7 -60t-8 -53t-7 -13.5t-13 -5.5l-217 -12q-18 0 -22 -19q-13 -69 -13 -79q0 -13 14 -13q40 0 120.5 5.5t120.5 5.5q7 0 12 -5.5t5 -12.5l-3 -96
q-2 -18 -19 -20l-239 -27q-7 -1 -11.5 -9.5t-4.5 -16.5q0 -32 19 -32l271 10q7 0 12 -5.5t6 -12.5q5 -100 5 -115zM441 831q0 -6 -7 -13l-127 -111q-12 -10 -28 -10h-2l-35 3q-10 1 -10 10q0 5 2 7l86 131q10 14 24 14h4l86 -22q7 -4 7 -9z" />
    <glyph glyph-name="Ecircumflex" unicode="&#xca;" horiz-adv-x="559" 
d="M540 54q0 -16 -17 -18l-460 -39q-14 0 -16 17q-13 83 -13 280q0 239 22 351q2 18 18 18l429 -7q16 0 16 -16q0 -15 -7 -60t-8 -53t-7 -13.5t-13 -5.5l-217 -12q-18 0 -22 -19q-13 -69 -13 -79q0 -13 14 -13q40 0 120.5 5.5t120.5 5.5q7 0 12 -5.5t5 -12.5l-3 -96
q-2 -18 -19 -20l-239 -27q-7 -1 -11.5 -9.5t-4.5 -16.5q0 -32 19 -32l271 10q7 0 12 -5.5t6 -12.5q5 -100 5 -115zM437 721q0 -9 -12 -9h-34q-19 0 -30 14l-48 55q-3 6 -11 6q-6 0 -12 -6l-60 -55q-14 -14 -28 -14h-2l-29 1q-12 2 -12 10q0 3 3 7l96 142q11 14 27 16l32 3h1
q14 0 25 -17l92 -147q2 -1 2 -6z" />
    <glyph glyph-name="Edieresis" unicode="&#xcb;" horiz-adv-x="559" 
d="M442 762q0 -24 -18.5 -41t-44.5 -17t-44 17t-18 41q0 23 18.5 40t43.5 17q26 0 44.5 -17t18.5 -40zM268 762q0 -24 -18 -41t-44 -17t-44.5 17t-18.5 41q0 23 18.5 40t44.5 17q25 0 43.5 -17t18.5 -40zM540 54q0 -16 -17 -18l-460 -39q-14 0 -16 17q-13 83 -13 280
q0 239 22 351q2 18 18 18l429 -7q16 0 16 -16q0 -15 -7 -60t-8 -53t-7 -13.5t-13 -5.5l-217 -12q-18 0 -22 -19q-13 -69 -13 -79q0 -13 14 -13q40 0 120.5 5.5t120.5 5.5q7 0 12 -5.5t5 -12.5l-3 -96q-2 -18 -19 -20l-239 -27q-7 -1 -11.5 -9.5t-4.5 -16.5q0 -32 19 -32
l271 10q7 0 12 -5.5t6 -12.5q5 -100 5 -115z" />
    <glyph glyph-name="Igrave" unicode="&#xcc;" horiz-adv-x="323" 
d="M292 653v-1q-24 -222 -24 -541q0 -69 1 -101q0 -12 -12 -12l-189 1q-11 0 -11 12q-9 99 -9 261q0 225 13 381q2 12 11 12l209 -2q11 0 11 -10zM258 722q0 -7 -11 -11l-30 -9h-5q-14 0 -26 10q-72 50 -134 112q-5 5 -5 11q0 8 8 10l91 16h4q18 0 24 -13q42 -74 81 -120
q3 -3 3 -6z" />
    <glyph glyph-name="Iacute" unicode="&#xcd;" horiz-adv-x="323" 
d="M292 653v-1q-24 -222 -24 -541q0 -69 1 -101q0 -12 -12 -12l-189 1q-11 0 -11 12q-9 99 -9 261q0 225 13 381q2 12 11 12l209 -2q11 0 11 -10zM337 839q0 -6 -6 -12l-127 -111q-13 -11 -29 -11h-3l-34 4q-11 2 -11 9q0 4 3 8l86 131q10 14 24 14q1 0 2 -1h2l86 -22
q7 -2 7 -9z" />
    <glyph glyph-name="Icircumflex" unicode="&#xce;" horiz-adv-x="323" 
d="M292 653v-1q-24 -222 -24 -541q0 -69 1 -101q0 -12 -12 -12l-189 1q-11 0 -11 12q-9 99 -9 261q0 225 13 381q2 12 11 12l209 -2q11 0 11 -10zM317 712q0 -10 -13 -10h-34q-17 0 -30 15l-48 55q-2 5 -10 5t-13 -5l-60 -55q-15 -15 -28 -15h-2l-29 2q-12 2 -12 10q0 2 3 7
l96 141q10 15 27 17l32 3h1q14 0 25 -17l92 -147q3 -2 3 -6z" />
    <glyph glyph-name="Idieresis" unicode="&#xcf;" horiz-adv-x="323" 
d="M292 653v-1q-24 -222 -24 -541q0 -69 1 -101q0 -12 -12 -12l-189 1q-11 0 -11 12q-9 99 -9 261q0 225 13 381q2 12 11 12l209 -2q11 0 11 -10zM159 770q0 -24 -18 -41t-44 -17t-44.5 17t-18.5 41t18.5 40.5t44.5 16.5t44 -16.5t18 -40.5zM332 770q0 -24 -18 -41t-44 -17
t-44.5 17t-18.5 41t18.5 40.5t44.5 16.5t44 -16.5t18 -40.5z" />
    <glyph glyph-name="Eth" unicode="&#xd0;" horiz-adv-x="656" 
d="M639 359q0 -177 -95 -269.5t-269 -92.5q-118 0 -193 12q-15 3 -15 15l2 263l-47 -1q-5 0 -9 4t-3 8l17 102q2 14 13 12l31 -2l2 207q0 16 14 22q69 26 170 26q86 0 151 -13.5t119.5 -46.5t83 -94.5t28.5 -151.5zM447 352q0 63 -38 96.5t-97 33.5q-24 0 -24 -15l-2 -73
l43 -3q13 -2 13 -13l3 -76q0 -5 -4 -8.5t-9 -3.5l-50 -1l-1 -81q-1 -6 2.5 -8.5t13.5 -2.5q69 0 109.5 48t40.5 107z" />
    <glyph glyph-name="Ntilde" unicode="&#xd1;" horiz-adv-x="702" 
d="M515 802q0 -42 -27 -73.5t-71 -31.5q-19 0 -55.5 11t-54.5 11q-24 0 -34 -23q-3 -9 -11 -9h-28q-12 0 -12 11q0 36 26.5 68t62.5 32q19 0 56 -12t55 -12q24 0 39 32q2 7 13 7l32 1q3 1 6 -2.5t3 -9.5zM672 654l-23 -643q0 -9 -9 -9l-178 -2q-11 0 -20 11q-72 90 -175 282
q-5 9 -14 9q-12 0 -12 -15l-21 -290q-2 -9 -10 -9l-178 10q-9 0 -9 9q33 280 35 637q0 8 9 8l218 -10q13 0 17 -10q0 -1 25.5 -66.5t37 -93.5t34 -75.5t40.5 -74.5q6 -10 12 -10q11 0 11 16l4 334q0 7 7 7q49 -10 123 -10q12 0 35 1.5t36 1.5q5 1 5 -8z" />
    <glyph glyph-name="Ograve" unicode="&#xd2;" horiz-adv-x="635" 
d="M621 341q0 -166 -84.5 -260t-225.5 -94q-140 0 -219 84.5t-79 230.5q0 153 88.5 264t240.5 111q136 0 207.5 -85t71.5 -251zM413 325q0 79 -16 118t-59 39q-44 0 -75 -55t-31 -140q0 -81 21 -114t60 -33q48 0 74 54t26 131zM411 730q0 -7 -11 -10l-29 -9h-5q-8 0 -28 10
q-70 48 -133 111q-5 7 -5 12q0 8 8 9l91 16l3 1q18 0 25 -13q43 -75 80 -120q4 -4 4 -7z" />
    <glyph glyph-name="Oacute" unicode="&#xd3;" horiz-adv-x="635" 
d="M486 845q0 -7 -6 -13l-127 -110q-11 -11 -28 -11l-3 1l-35 3q-10 2 -10 9q0 5 2 8l87 130q9 15 24 15q2 0 4 -1l85 -22q7 -1 7 -9zM621 341q0 -166 -84.5 -260t-225.5 -94q-140 0 -219 84.5t-79 230.5q0 153 88.5 264t240.5 111q136 0 207.5 -85t71.5 -251zM413 325
q0 79 -16 118t-59 39q-44 0 -75 -55t-31 -140q0 -81 21 -114t60 -33q48 0 74 54t26 131z" />
    <glyph glyph-name="Ocircumflex" unicode="&#xd4;" horiz-adv-x="635" 
d="M621 341q0 -166 -84.5 -260t-225.5 -94q-140 0 -219 84.5t-79 230.5q0 153 88.5 264t240.5 111q136 0 207.5 -85t71.5 -251zM413 325q0 79 -16 118t-59 39q-44 0 -75 -55t-31 -140q0 -81 21 -114t60 -33q48 0 74 54t26 131zM488 711q0 -9 -12 -9h-34q-20 0 -30 14l-48 55
q-3 6 -11 6q-6 0 -12 -6l-60 -55q-14 -14 -29 -14h-1l-29 1q-12 2 -12 10q0 1 2 7l97 142q11 14 27 16l31 3h2q14 0 25 -17l92 -147q2 -2 2 -6z" />
    <glyph glyph-name="Otilde" unicode="&#xd5;" horiz-adv-x="635" 
d="M502 824q0 -42 -27.5 -73.5t-71.5 -31.5q-19 0 -55 11.5t-54 11.5q-24 0 -34 -24q-3 -8 -12 -8h-27q-13 0 -13 11q0 36 26.5 68t62.5 32q20 0 57 -12t55 -12q24 0 38 31q4 8 14 8l31 1q10 0 10 -13zM621 341q0 -166 -84.5 -260t-225.5 -94q-140 0 -219 84.5t-79 230.5
q0 153 88.5 264t240.5 111q136 0 207.5 -85t71.5 -251zM413 325q0 79 -16 118t-59 39q-44 0 -75 -55t-31 -140q0 -81 21 -114t60 -33q48 0 74 54t26 131z" />
    <glyph glyph-name="Odieresis" unicode="&#xd6;" horiz-adv-x="635" 
d="M484 770q0 -24 -18 -41t-44 -17t-44.5 17t-18.5 41t18.5 40.5t44.5 16.5t44 -16.5t18 -40.5zM311 770q0 -24 -18.5 -41t-44.5 -17t-44 17t-18 41t18 40.5t44 16.5t44.5 -16.5t18.5 -40.5zM621 341q0 -166 -84.5 -260t-225.5 -94q-140 0 -219 84.5t-79 230.5
q0 153 88.5 264t240.5 111q136 0 207.5 -85t71.5 -251zM413 325q0 79 -16 118t-59 39q-44 0 -75 -55t-31 -140q0 -81 21 -114t60 -33q48 0 74 54t26 131z" />
    <glyph glyph-name="Oslash" unicode="&#xd8;" horiz-adv-x="655" 
d="M659 587q0 -11 -9 -20l-49 -48q29 -73 29 -178q0 -166 -84 -260t-226 -94q-122 0 -199 65l-93 -90q-4 -4 -9 -4q-10 0 -10 11l-4 69v1q0 7 11 18l56 53q-50 77 -50 192q0 98 37 182t113.5 138.5t179.5 54.5q144 0 215 -97l80 75q0 1 2 1q4 0 7 -4.5t3 -9.5v-55zM411 432
q-18 50 -64 50q-44 0 -75 -55t-31 -140v-16zM422 325v20l-166 -161q20 -44 66 -44q48 0 74 54t26 131z" />
    <glyph glyph-name="Ugrave" unicode="&#xd9;" horiz-adv-x="671" 
d="M647 554q0 -50 -0.5 -85t-4 -85.5t-10 -87t-18 -80.5t-28 -74.5t-42 -61.5t-57 -49.5t-74.5 -30.5t-95 -12q-144 0 -216.5 85t-72.5 239q0 157 28 328q0 5 6 5q43 -3 94 -3q80 0 110 5h2q6 0 6 -5q-23 -104 -35.5 -192.5t-13.5 -125.5l-2 -36q0 -87 21 -120.5t67 -33.5
q36 0 63 33.5t41.5 89.5t21 117t6.5 127q0 112 -12 160v1q0 6 6 6h1q56 -6 133 -6q48 0 66 2h1q8 0 8 -7v-103zM414 715q0 -7 -11 -10l-30 -8q-1 -1 -4 -1q-12 0 -27 11q-53 35 -134 110q-5 7 -5 12q0 7 9 10l90 16h4q18 0 25 -13q44 -77 80 -120q3 -3 3 -7z" />
    <glyph glyph-name="Uacute" unicode="&#xda;" horiz-adv-x="671" 
d="M647 554q0 -50 -0.5 -85t-4 -85.5t-10 -87t-18 -80.5t-28 -74.5t-42 -61.5t-57 -49.5t-74.5 -30.5t-95 -12q-144 0 -216.5 85t-72.5 239q0 157 28 328q0 5 6 5q43 -3 94 -3q80 0 110 5h2q6 0 6 -5q-23 -104 -35.5 -192.5t-13.5 -125.5l-2 -36q0 -87 21 -120.5t67 -33.5
q36 0 63 33.5t41.5 89.5t21 117t6.5 127q0 112 -12 160v1q0 6 6 6h1q56 -6 133 -6q48 0 66 2h1q8 0 8 -7v-103zM521 828q0 -8 -6 -12l-127 -111q-11 -11 -28 -11h-3l-35 4q-10 2 -10 9q0 5 2 8l87 131q10 14 24 14h1q2 -1 3 -1l85 -22q7 0 7 -9z" />
    <glyph glyph-name="Ucircumflex" unicode="&#xdb;" horiz-adv-x="671" 
d="M647 554q0 -50 -0.5 -85t-4 -85.5t-10 -87t-18 -80.5t-28 -74.5t-42 -61.5t-57 -49.5t-74.5 -30.5t-95 -12q-144 0 -216.5 85t-72.5 239q0 157 28 328q0 5 6 5q43 -3 94 -3q80 0 110 5h2q6 0 6 -5q-23 -104 -35.5 -192.5t-13.5 -125.5l-2 -36q0 -87 21 -120.5t67 -33.5
q36 0 63 33.5t41.5 89.5t21 117t6.5 127q0 112 -12 160v1q0 6 6 6h1q56 -6 133 -6q48 0 66 2h1q8 0 8 -7v-103zM498 717q0 -10 -11 -10h-35q-19 0 -30 15l-47 55q-4 5 -11 5q-8 0 -12 -5l-60 -55q-17 -15 -30 -15l-30 2q-11 2 -11 10q0 4 1 7l98 141q10 15 27 17l31 3h2
q14 0 25 -17l92 -147q1 -1 1 -6z" />
    <glyph glyph-name="Udieresis" unicode="&#xdc;" horiz-adv-x="671" 
d="M647 554q0 -50 -0.5 -85t-4 -85.5t-10 -87t-18 -80.5t-28 -74.5t-42 -61.5t-57 -49.5t-74.5 -30.5t-95 -12q-144 0 -216.5 85t-72.5 239q0 157 28 328q0 5 6 5q43 -3 94 -3q80 0 110 5h2q6 0 6 -5q-23 -104 -35.5 -192.5t-13.5 -125.5l-2 -36q0 -87 21 -120.5t67 -33.5
q36 0 63 33.5t41.5 89.5t21 117t6.5 127q0 112 -12 160v1q0 6 6 6h1q56 -6 133 -6q48 0 66 2h1q8 0 8 -7v-103zM492 754q0 -24 -18.5 -40.5t-44.5 -16.5t-44 16.5t-18 40.5t18 41t44 17t44.5 -17t18.5 -41zM318 754q0 -24 -18 -40.5t-44 -16.5t-44.5 16.5t-18.5 40.5
t18.5 41t44.5 17t44 -17t18 -41z" />
    <glyph glyph-name="Yacute" unicode="&#xdd;" horiz-adv-x="646" 
d="M653 625v-2l-212 -362l1 -242q0 -6 -9 -8l-196 -32q-7 -1 -9 8l-24 258l-196 387q-1 1 -1 4q0 9 10 11l209 17q9 0 11 -9l85 -208q5 -10 9 -10q5 0 7 9l95 223q2 6 8 6h1l208 -46q3 -1 3 -4zM495 829q0 -7 -6 -12l-127 -111q-11 -11 -28 -11q-1 0 -2 1h-1l-34 3
q-11 2 -11 9q0 1 2 9l87 130q10 14 24 14q3 0 4 -1l85 -22q7 -1 7 -9z" />
    <glyph glyph-name="Thorn" unicode="&#xde;" horiz-adv-x="566" 
d="M551 346q0 -98 -62 -161t-201 -98q-16 -4 -16 -20l-2 -48q0 -6 -5 -11t-12 -5l-201 -4q-15 0 -15 16v11q0 71 -4 227.5t-4 235.5q0 81 3 158q0 6 5 10.5t12 4.5l202 5q6 0 10.5 -5t4.5 -11v-72q136 -9 210.5 -72.5t74.5 -160.5zM378 331q0 26 -25.5 41t-64.5 15
q-8 0 -14 -7t-6 -15l-1 -94q0 -7 5 -12t12 -5h3q35 6 63 26.5t28 50.5z" />
    <glyph glyph-name="germandbls" unicode="&#xdf;" horiz-adv-x="608" 
d="M598 107q0 -46 -30.5 -79.5t-68 -46.5t-72.5 -13q-81 0 -127.5 42t-46.5 108q0 33 25 34l68 1q10 1 13 -6.5t3 -22.5t20.5 -26.5t40.5 -11.5q10 0 17.5 4t9.5 7.5t2 6.5q0 12 -9.5 21.5t-20.5 14.5t-25.5 10t-17.5 7q-63 32 -87 60q-37 42 -37 99q0 41 20.5 82t20.5 69
q0 21 -9 31t-21 10q-40 0 -40 -71l2 -425q0 -5 -4 -9.5t-9 -4.5h-1l-144 -7h-1q-14 0 -12 15v239l-35 2q-9 0 -9 7v1l6 110q0 8 8 8l31 1l1 106q1 80 56.5 123t155.5 43q71 0 123 -41.5t52 -118.5q0 -47 -20.5 -92.5t-20.5 -57.5q0 -27 20 -46.5t48.5 -32.5t56.5 -28.5
t48 -46t20 -75.5z" />
    <glyph glyph-name="agrave" unicode="&#xe0;" 
d="M510 476l-17 -459q0 -15 -14 -15l-137 -7q-12 0 -14 12l-1 45q-40 -40 -105 -40q-94 0 -150.5 64.5t-56.5 174.5q0 101 62 165.5t148 64.5q51 0 102 -30v21q0 13 13 15l157 2q13 0 13 -13zM372 545q0 -6 -11 -10l-30 -8q-1 -1 -4 -1q-10 0 -28 11q-61 41 -133 110
q-5 5 -5 12t8 10l91 16h3q19 0 25 -13q44 -77 80 -120q4 -3 4 -7zM327 234v39q-5 21 -21 35t-39 14q-30 0 -49 -22.5t-19 -57.5q0 -33 19.5 -53.5t47.5 -20.5q21 0 38.5 18t22.5 48z" />
    <glyph glyph-name="aacute" unicode="&#xe1;" 
d="M510 476l-17 -459q0 -15 -14 -15l-137 -7q-12 0 -14 12l-1 45q-40 -40 -105 -40q-94 0 -150.5 64.5t-56.5 174.5q0 101 62 165.5t148 64.5q51 0 102 -30v21q0 13 13 15l157 2q13 0 13 -13zM434 657q0 -7 -6 -12l-126 -111q-13 -11 -29 -11h-3l-34 4q-11 2 -11 10q0 3 2 7
l87 131q10 14 24 14l2 -1h2l85 -21q7 -1 7 -10zM327 234v39q-5 21 -21 35t-39 14q-30 0 -49 -22.5t-19 -57.5q0 -33 19.5 -53.5t47.5 -20.5q21 0 38.5 18t22.5 48z" />
    <glyph glyph-name="acircumflex" unicode="&#xe2;" 
d="M510 476l-17 -459q0 -15 -14 -15l-137 -7q-12 0 -14 12l-1 45q-40 -40 -105 -40q-94 0 -150.5 64.5t-56.5 174.5q0 101 62 165.5t148 64.5q51 0 102 -30v21q0 13 13 15l157 2q13 0 13 -13zM422 537q0 -9 -12 -9h-34q-20 0 -30 14l-48 55q-5 6 -11 6q-7 0 -12 -6l-60 -55
q-19 -14 -29 -14h-1l-29 2q-13 2 -13 10q0 3 3 6l97 142q10 14 27 16l32 3h1q15 0 25 -16l92 -147q2 -4 2 -7zM327 234v39q-5 21 -21 35t-39 14q-30 0 -49 -22.5t-19 -57.5q0 -33 19.5 -53.5t47.5 -20.5q21 0 38.5 18t22.5 48z" />
    <glyph glyph-name="atilde" unicode="&#xe3;" 
d="M510 476l-17 -459q0 -15 -14 -15l-137 -7q-12 0 -14 12l-1 45q-40 -40 -105 -40q-94 0 -150.5 64.5t-56.5 174.5q0 101 62 165.5t148 64.5q51 0 102 -30v21q0 13 13 15l157 2q13 0 13 -13zM424 632q0 -41 -27 -73t-71 -32q-19 0 -55 11.5t-54 11.5q-24 0 -35 -23
q-3 -9 -11 -9h-28q-12 0 -12 11q0 36 26.5 68t62.5 32q19 0 56 -12t56 -12q23 0 38 32q3 7 13 7l32 1q3 1 6 -2.5t3 -10.5zM327 234v39q-5 21 -21 35t-39 14q-30 0 -49 -22.5t-19 -57.5q0 -33 19.5 -53.5t47.5 -20.5q21 0 38.5 18t22.5 48z" />
    <glyph glyph-name="adieresis" unicode="&#xe4;" 
d="M510 476l-17 -459q0 -15 -14 -15l-137 -7q-12 0 -14 12l-1 45q-40 -40 -105 -40q-94 0 -150.5 64.5t-56.5 174.5q0 101 62 165.5t148 64.5q51 0 102 -30v21q0 13 13 15l157 2q13 0 13 -13zM327 234v39q-5 21 -21 35t-39 14q-30 0 -49 -22.5t-19 -57.5q0 -33 19.5 -53.5
t47.5 -20.5q21 0 38.5 18t22.5 48zM426 597q0 -24 -18.5 -41t-44.5 -17t-44 17t-18 41q0 23 18.5 40t43.5 17q26 0 44.5 -17t18.5 -40zM252 597q0 -24 -18 -41t-44 -17t-44.5 17t-18.5 41q0 23 18.5 40t44.5 17q25 0 43.5 -17t18.5 -40z" />
    <glyph glyph-name="aring" unicode="&#xe5;" 
d="M510 476l-17 -459q0 -15 -14 -15l-137 -7q-12 0 -14 12l-1 45q-40 -40 -105 -40q-94 0 -150.5 64.5t-56.5 174.5q0 101 62 165.5t148 64.5q51 0 102 -30v21q0 13 13 15l157 2q13 0 13 -13zM399 648q0 -52 -36.5 -89t-89.5 -37t-89 36.5t-36 89.5q0 52 36 88.5t89 36.5
t89.5 -36.5t36.5 -88.5zM327 234v39q-5 21 -21 35t-39 14q-30 0 -49 -22.5t-19 -57.5q0 -33 19.5 -53.5t47.5 -20.5q21 0 38.5 18t22.5 48zM327 648q0 22 -16 38t-38 16t-37.5 -16t-15.5 -38t15.5 -37t37.5 -15t38 15t16 37z" />
    <glyph glyph-name="ae" unicode="&#xe6;" horiz-adv-x="802" 
d="M793 166v-4q-11 -64 -69.5 -119t-141.5 -55q-56 0 -105 17q-3 -3 -8 -3l-127 -7q-12 0 -14 12l-1 45q-40 -40 -105 -40q-94 0 -150.5 64.5t-56.5 174.5q0 101 62 165.5t148 64.5q51 0 102 -30v21q0 13 13 15l142 2q30 9 62 9q111 0 162.5 -73.5t51.5 -186.5
q0 -31 -26 -31q0 -3 -238 -8q14 -72 78 -72q22 0 39 10t21 24q3 11 19 11q24 1 46.5 1.5t36.5 1t25 1t17 0.5l5 1q12 0 12 -11zM327 234v39q-5 21 -21 35t-39 14q-30 0 -49 -22.5t-19 -57.5q0 -33 19.5 -53.5t47.5 -20.5q21 0 38.5 18t22.5 48zM586 297q0 19 -9.5 32
t-28.5 13q-44 0 -52 -54q70 4 86 4q4 0 4 5z" />
    <glyph glyph-name="ccedilla" unicode="&#xe7;" horiz-adv-x="496" 
d="M479 176v-4q-5 -31 -17.5 -60t-34.5 -57.5t-60 -47t-86 -19.5l3 -21q111 0 111 -88q0 -47 -34 -72t-82 -25q-32 0 -60 11q-18 9 -17 20v2l5 42q0 10 6 10q3 0 6 -3q30 -16 52 -16q37 0 37 32q0 30 -55 30q-3 0 -8 -1t-8 -1q-15 0 -15 9l5 75q-94 12 -149.5 74.5
t-55.5 164.5q0 125 66 200t164 75q92 0 152.5 -52t60.5 -147q0 -23 -3 -33q-6 -23 -31 -21l-112 4q-20 1 -20 26q0 21 -12.5 35.5t-34.5 14.5q-27 0 -46 -30t-19 -80q0 -51 24 -73.5t54 -22.5q41 0 53 44q4 11 19 11q38 1 70.5 2.5t46.5 1.5l13 1q12 0 12 -11z" />
    <glyph glyph-name="egrave" unicode="&#xe8;" horiz-adv-x="496" 
d="M487 166v-4q-12 -64 -70 -119t-142 -55q-112 0 -182.5 63t-70.5 177q0 116 60.5 193t154.5 77q112 0 163.5 -73.5t51.5 -186.5q0 -31 -27 -31q0 -3 -238 -8q14 -72 78 -72q22 0 39.5 10t21.5 24q2 11 18 11q25 1 47 1.5t36.5 1t25 1t15.5 0.5l6 1q13 0 13 -11zM320 554
q0 -6 -11 -11l-30 -8q-1 0 -2.5 -0.5t-2.5 -0.5q-12 0 -27 11q-71 48 -133 112q-5 5 -5 10q0 10 8 10l90 16h5q17 0 24 -12q42 -75 81 -120q0 -1 1.5 -3.5t1.5 -3.5zM279 297q0 19 -9.5 32t-27.5 13q-43 0 -53 -54q70 4 87 4q3 0 3 5z" />
    <glyph glyph-name="eacute" unicode="&#xe9;" horiz-adv-x="496" 
d="M487 166v-4q-12 -64 -70 -119t-142 -55q-112 0 -182.5 63t-70.5 177q0 116 60.5 193t154.5 77q112 0 163.5 -73.5t51.5 -186.5q0 -31 -27 -31q0 -3 -238 -8q14 -72 78 -72q22 0 39.5 10t21.5 24q2 11 18 11q25 1 47 1.5t36.5 1t25 1t15.5 0.5l6 1q13 0 13 -11zM395 666
q0 -7 -6 -13l-127 -111q-12 -10 -28 -10h-3l-34 4q-11 2 -11 9q0 3 2 7l87 131q9 14 24 14h4l85 -22q7 -1 7 -9zM279 297q0 19 -9.5 32t-27.5 13q-43 0 -53 -54q70 4 87 4q3 0 3 5z" />
    <glyph glyph-name="ecircumflex" unicode="&#xea;" horiz-adv-x="496" 
d="M487 166v-4q-12 -64 -70 -119t-142 -55q-112 0 -182.5 63t-70.5 177q0 116 60.5 193t154.5 77q112 0 163.5 -73.5t51.5 -186.5q0 -31 -27 -31q0 -3 -238 -8q14 -72 78 -72q22 0 39.5 10t21.5 24q2 11 18 11q25 1 47 1.5t36.5 1t25 1t15.5 0.5l6 1q13 0 13 -11zM388 526
q0 -9 -11 -9h-35q-21 0 -30 14l-47 55q-6 6 -11 6q-6 0 -12 -6l-60 -56q-17 -13 -30 -13l-30 1q-12 2 -12 10q0 2 2 6l98 143q11 15 27 15l31 3h2q15 0 25 -16l92 -147q0 -1 0.5 -3t0.5 -3zM279 297q0 19 -9.5 32t-27.5 13q-43 0 -53 -54q70 4 87 4q3 0 3 5z" />
    <glyph glyph-name="edieresis" unicode="&#xeb;" horiz-adv-x="496" 
d="M487 166v-4q-12 -64 -70 -119t-142 -55q-112 0 -182.5 63t-70.5 177q0 116 60.5 193t154.5 77q112 0 163.5 -73.5t51.5 -186.5q0 -31 -27 -31q0 -3 -238 -8q14 -72 78 -72q22 0 39.5 10t21.5 24q2 11 18 11q25 1 47 1.5t36.5 1t25 1t15.5 0.5l6 1q13 0 13 -11zM391 595
q0 -24 -18.5 -41t-44.5 -17t-44 17t-18 41t18 40.5t44 16.5t44.5 -16.5t18.5 -40.5zM217 595q0 -24 -18 -41t-44 -17t-44.5 17t-18.5 41t18.5 40.5t44.5 16.5t44 -16.5t18 -40.5zM279 297q0 19 -9.5 32t-27.5 13q-43 0 -53 -54q70 4 87 4q3 0 3 5z" />
    <glyph glyph-name="igrave" unicode="&#xec;" horiz-adv-x="279" 
d="M243 419l-11 -411q0 -11 -11 -11h-1l-151 4q-11 0 -13 12l-11 409q0 12 12 12l174 -2q5 0 8.5 -4t3.5 -9zM215 482q0 -8 -10 -10l-30 -9q-2 -1 -5 -1q-12 0 -27 11q-71 48 -133 112q-5 3 -5 11q0 9 7 10l91 16h4q17 0 25 -13q41 -73 80 -120q3 -3 3 -7z" />
    <glyph glyph-name="iacute" unicode="&#xed;" horiz-adv-x="279" 
d="M243 419l-11 -411q0 -11 -11 -11h-1l-151 4q-11 0 -13 12l-11 409q0 12 12 12l174 -2q5 0 8.5 -4t3.5 -9zM299 600q0 -7 -7 -13l-126 -110q-13 -11 -29 -11h-2l-35 3q-10 1 -10 10q0 2 2 8l86 130q10 14 24 14h5l85 -22q7 -3 7 -9z" />
    <glyph glyph-name="icircumflex" unicode="&#xee;" horiz-adv-x="279" 
d="M243 419l-11 -411q0 -11 -11 -11h-1l-151 4q-12 0 -12 12l-12 409q0 12 12 12l174 -2q5 0 8.5 -4t3.5 -9zM291 487q0 -9 -13 -9h-34q-16 0 -30 14l-47 55q-4 6 -11 6q-8 0 -13 -6l-60 -55q-14 -14 -28 -14h-2l-28 2q-13 2 -13 10q0 2 3 7l97 141q8 15 27 17l32 2h1
q15 0 25 -16l91 -147q3 -3 3 -7z" />
    <glyph glyph-name="idieresis" unicode="&#xef;" horiz-adv-x="279" 
d="M243 419l-11 -411q0 -11 -11 -11h-1l-151 4q-11 0 -13 12l-11 409q0 12 12 12l174 -2q5 0 8.5 -4t3.5 -9zM294 551q0 -24 -18 -41t-44 -17t-44.5 17t-18.5 41q0 23 18.5 40t44.5 17q25 0 43.5 -17t18.5 -40zM121 551q0 -24 -18.5 -41t-44.5 -17t-44 17t-18 41
q0 23 18.5 40t43.5 17q26 0 44.5 -17t18.5 -40z" />
    <glyph glyph-name="eth" unicode="&#xf0;" horiz-adv-x="508" 
d="M488 248q0 -112 -55 -186t-162 -74q-101 0 -174 67t-73 182t57 183.5t157 75.5q-13 17 -37 37l-56 -45q-1 0 -3 -1q-4 -2 -6 -2q-4 0 -9 3l-31 31q-4 4 -4 9q0 7 4 9l41 33q-35 14 -73 14q-4 0 -4 4q0 15 31 47t53 32q48 0 95 -16l56 44q4 3 10 3q5 0 8 -3l32 -31
q3 -3 3 -9q0 -7 -3 -8l-37 -30q83 -52 131.5 -156t48.5 -213zM317 238q0 32 -18.5 53t-44.5 21q-30 0 -46.5 -22t-16.5 -57q0 -32 19 -51.5t47 -19.5q27 0 43.5 21t16.5 55z" />
    <glyph glyph-name="ntilde" unicode="&#xf1;" horiz-adv-x="547" 
d="M524 182q0 -148 -6 -183q-2 -8 -11 -8l-168 11q-7 0 -7 7v1q5 28 5 132q0 122 -10.5 164t-49.5 42q-33 0 -47.5 -22.5t-13.5 -73.5l1 -236q0 -13 -12 -13l-156 4q-12 0 -12 13l-12 465v1q0 11 12 11l165 -2q11 -2 13 -13v-26q46 23 107 23q49 0 84 -13t62.5 -45
t41.5 -91.5t14 -147.5zM437 647q0 -42 -27 -73.5t-71 -31.5q-19 0 -54.5 11.5t-54.5 11.5q-25 0 -34 -23q-4 -9 -12 -9h-27q-13 0 -13 11q0 36 26.5 68t62.5 32q20 0 56.5 -12t55.5 -12q25 0 38 32q4 7 14 7l31 1q3 1 6 -2.5t3 -10.5z" />
    <glyph glyph-name="ograve" unicode="&#xf2;" horiz-adv-x="508" 
d="M487 237q0 -116 -60 -182.5t-156 -66.5q-101 0 -174 67t-73 182q0 121 62.5 190.5t170.5 69.5q104 0 167 -67.5t63 -192.5zM316 549q0 -5 -11 -11l-30 -8q-1 0 -2.5 -0.5t-2.5 -0.5q-12 0 -27 11q-77 52 -133 112q-5 5 -5 10q0 10 7 10l91 16h4q16 0 25 -12
q41 -74 80 -120q4 -6 4 -7zM317 238q0 32 -18.5 53t-44.5 21q-30 0 -46.5 -22t-16.5 -57q0 -32 19 -51.5t47 -19.5q27 0 43.5 21t16.5 55z" />
    <glyph glyph-name="oacute" unicode="&#xf3;" horiz-adv-x="508" 
d="M487 237q0 -116 -60 -182.5t-156 -66.5q-101 0 -174 67t-73 182q0 121 62.5 190.5t170.5 69.5q104 0 167 -67.5t63 -192.5zM417 673q0 -7 -6 -12l-127 -111q-13 -11 -28 -11h-4l-34 4q-11 2 -11 9q0 4 3 8l87 131q10 14 24 14l1 -1h3l85 -22q7 0 7 -9zM317 238
q0 32 -18.5 53t-44.5 21q-30 0 -46.5 -22t-16.5 -57q0 -32 19 -51.5t47 -19.5q27 0 43.5 21t16.5 55z" />
    <glyph glyph-name="ocircumflex" unicode="&#xf4;" horiz-adv-x="508" 
d="M487 237q0 -116 -60 -182.5t-156 -66.5q-101 0 -174 67t-73 182q0 121 62.5 190.5t170.5 69.5q104 0 167 -67.5t63 -192.5zM398 528q0 -10 -12 -10h-34q-18 0 -30 14l-48 55q-2 6 -11 6q-7 0 -12 -5l-60 -56q-16 -14 -29 -14h-1l-29 2q-12 2 -12 10q0 1 2 7l97 141
q10 15 27 17l31 2h2q15 0 25 -16l92 -146q2 -6 2 -7zM317 238q0 32 -18.5 53t-44.5 21q-30 0 -46.5 -22t-16.5 -57q0 -32 19 -51.5t47 -19.5q27 0 43.5 21t16.5 55z" />
    <glyph glyph-name="otilde" unicode="&#xf5;" horiz-adv-x="508" 
d="M400 637q0 -41 -27 -73t-71 -32q-19 0 -55.5 11.5t-54.5 11.5q-23 0 -34 -23q-3 -9 -11 -9h-28q-12 0 -12 11q0 36 26.5 68t62.5 32q19 0 56 -12t55 -12q24 0 39 32q3 7 13 7l32 1q3 1 6 -2.5t3 -10.5zM487 237q0 -116 -60 -182.5t-156 -66.5q-101 0 -174 67t-73 182
q0 121 62.5 190.5t170.5 69.5q104 0 167 -67.5t63 -192.5zM317 238q0 32 -18.5 53t-44.5 21q-30 0 -46.5 -22t-16.5 -57q0 -32 19 -51.5t47 -19.5q27 0 43.5 21t16.5 55z" />
    <glyph glyph-name="odieresis" unicode="&#xf6;" horiz-adv-x="508" 
d="M402 592q0 -24 -18 -41t-44 -17t-44.5 17t-18.5 41q0 23 18.5 40t44.5 17q25 0 43.5 -17t18.5 -40zM229 592q0 -24 -18 -41t-44 -17t-44.5 17t-18.5 41q0 23 18.5 40t44.5 17q25 0 43.5 -17t18.5 -40zM487 237q0 -116 -60 -182.5t-156 -66.5q-101 0 -174 67t-73 182
q0 121 62.5 190.5t170.5 69.5q104 0 167 -67.5t63 -192.5zM317 238q0 32 -18.5 53t-44.5 21q-30 0 -46.5 -22t-16.5 -57q0 -32 19 -51.5t47 -19.5q27 0 43.5 21t16.5 55z" />
    <glyph glyph-name="oslash" unicode="&#xf8;" horiz-adv-x="512" 
d="M497 435q0 -11 -9 -20l-30 -29q34 -60 34 -149q0 -116 -60.5 -182.5t-156.5 -66.5q-95 0 -165 59l-87 -85q-4 -4 -9 -4q-10 0 -10 11l-4 69v1q0 9 11 18l51 48q-34 60 -34 132q0 121 62.5 190.5t171.5 69.5q93 0 155 -57l68 63l2 1q4 0 7 -4t3 -9v-56zM277 308
q-10 4 -19 4q-30 0 -47 -22.5t-16 -56.5v-3zM321 238q0 9 -1 14l-86 -85q13 -5 27 -5q27 0 43.5 21t16.5 55z" />
    <glyph glyph-name="ugrave" unicode="&#xf9;" horiz-adv-x="542" 
d="M513 478l-16 -485q0 -5 -4 -9.5t-10 -4.5h-1l-146 5q-6 0 -10 4.5t-4 9.5v20q-36 -18 -76 -18q-122 0 -173 78.5t-51 227.5q0 82 14 152q2 7 9 7h1l171 -13q9 0 9 -8v-2q-17 -91 -17 -192q0 -116 57 -116q56 0 56 81v252q2 15 15 15l163 9q0 1 1 1q12 0 12 -14zM329 531
q0 -7 -11 -11l-30 -8h-2q-2 -1 -3 -1q-13 0 -26 11q-68 45 -134 111q-5 7 -5 11q0 8 8 10l91 16h4q17 0 24 -13q42 -74 81 -120z" />
    <glyph glyph-name="uacute" unicode="&#xfa;" horiz-adv-x="542" 
d="M513 478l-16 -485q0 -5 -4 -9.5t-10 -4.5h-1l-146 5q-6 0 -10 4.5t-4 9.5v20q-36 -18 -76 -18q-122 0 -173 78.5t-51 227.5q0 82 14 152q2 7 9 7h1l171 -13q9 0 9 -8v-2q-17 -91 -17 -192q0 -116 57 -116q56 0 56 81v252q2 15 15 15l163 9q0 1 1 1q12 0 12 -14zM417 647
q0 -8 -5 -12l-127 -111q-13 -11 -28 -11h-4l-34 4q-11 2 -11 10q0 4 3 7l86 131q10 14 25 14q2 -1 4 -1l85 -21q6 -1 6 -10z" />
    <glyph glyph-name="ucircumflex" unicode="&#xfb;" horiz-adv-x="542" 
d="M513 478l-16 -485q0 -5 -4 -9.5t-10 -4.5h-1l-146 5q-6 0 -10 4.5t-4 9.5v20q-36 -18 -76 -18q-122 0 -173 78.5t-51 227.5q0 82 14 152q2 7 9 7h1l171 -13q9 0 9 -8v-2q-17 -91 -17 -192q0 -116 57 -116q56 0 56 81v252q2 15 15 15l163 9q0 1 1 1q12 0 12 -14zM413 528
q0 -9 -12 -9h-34q-18 0 -30 14l-48 55q-3 6 -11 6q-6 0 -12 -6l-60 -55q-16 -14 -29 -14h-1l-29 2q-12 2 -12 10q0 2 2 6l97 142q12 15 27 17l31 2h2q15 0 25 -16l92 -147q2 -4 2 -7z" />
    <glyph glyph-name="udieresis" unicode="&#xfc;" horiz-adv-x="542" 
d="M513 478l-16 -485q0 -5 -4 -9.5t-10 -4.5h-1l-146 5q-6 0 -10 4.5t-4 9.5v20q-36 -18 -76 -18q-122 0 -173 78.5t-51 227.5q0 82 14 152q2 7 9 7h1l171 -13q9 0 9 -8v-2q-17 -91 -17 -192q0 -116 57 -116q56 0 56 81v252q2 15 15 15l163 9q0 1 1 1q12 0 12 -14zM417 579
q0 -24 -18.5 -40.5t-44.5 -16.5t-44 16.5t-18 40.5t18 41t44 17t44.5 -17t18.5 -41zM243 579q0 -24 -18 -40.5t-44 -16.5t-44.5 16.5t-18.5 40.5t18.5 41t44.5 17t44 -17t18 -41z" />
    <glyph glyph-name="yacute" unicode="&#xfd;" horiz-adv-x="522" 
d="M492 478l-23 -695q0 -5 -4.5 -9.5t-9.5 -3.5h-1l-134 4q-14 0 -14 15l7 229q-32 -16 -77 -16q-59 0 -102 22.5t-66.5 62t-34 85.5t-10.5 101q0 88 23 205q2 7 8 7l2 -1l176 -12q8 0 8 -8v-2q-32 -155 -32 -223q0 -45 11 -75t31 -30q52 0 52 81v252q0 15 15 15l161 9l1 1
q13 0 13 -14zM431 653q0 -7 -6 -12l-127 -111q-11 -11 -28 -11h-3l-35 4q-10 2 -10 9q0 5 2 8l87 131q10 14 24 14l1 -1h3l85 -22q7 0 7 -9z" />
    <glyph glyph-name="thorn" unicode="&#xfe;" horiz-adv-x="541" 
d="M522 239q0 -120 -58.5 -183t-145.5 -63q-57 0 -107 24l-4 -215q0 -17 -15 -17l-144 -5q-6 0 -10.5 4.5t-4.5 11.5l-4 852q0 7 5 11.5t11 4.5l161 8q6 0 11 -4.5t4 -10.5v-185q33 15 85 15q90 0 153 -68t63 -180zM337 241q0 35 -16.5 54.5t-45.5 19.5q-27 0 -43 -24.5
t-16 -55.5q0 -42 17 -65t43 -23q28 0 44.5 25t16.5 69z" />
    <glyph glyph-name="ydieresis" unicode="&#xff;" horiz-adv-x="522" 
d="M492 478l-23 -695q0 -5 -4.5 -9.5t-9.5 -3.5h-1l-134 4q-14 0 -14 15l7 229q-32 -16 -77 -16q-59 0 -102 22.5t-66.5 62t-34 85.5t-10.5 101q0 88 23 205q2 7 8 7l2 -1l176 -12q8 0 8 -8v-2q-32 -155 -32 -223q0 -45 11 -75t31 -30q52 0 52 81v252q0 15 15 15l161 9l1 1
q13 0 13 -14zM249 587q0 -23 -18.5 -40t-43.5 -17q-26 0 -44.5 17t-18.5 40q0 24 18.5 41t44.5 17t44 -17t18 -41zM422 587q0 -23 -18.5 -40t-43.5 -17q-26 0 -44.5 17t-18.5 40q0 24 18.5 41t44.5 17t44 -17t18 -41z" />
    <glyph glyph-name="dotlessi" unicode="&#x131;" horiz-adv-x="279" 
d="M243 419l-11 -411q0 -11 -11 -11h-1l-151 4q-11 0 -13 12l-11 409q0 12 12 12l174 -2q5 0 8.5 -4t3.5 -9z" />
    <glyph glyph-name="Lslash" unicode="&#x141;" horiz-adv-x="573" 
d="M539 182v-1l-7 -154q0 -10 -7 -11q-174 -21 -466 -35h-2q-8 0 -8 7v2q1 19 5.5 101t6.5 132l-29 -24q-4 -4 -9 -4q-10 0 -10 11l-4 69v1q0 9 11 18l43 35q3 133 3 254v77q0 7 11 7l200 6h1q9 0 9 -7v-2q-11 -96 -18 -170l74 59q1 1 3 1q4 0 7 -4t3 -9v-56q0 -13 -9 -20
l-86 -73q-9 -121 -9 -167q0 -35 4 -38q8 -9 86 -9q112 0 187 11h2q8 0 8 -7z" />
    <glyph glyph-name="lslash" unicode="&#x142;" horiz-adv-x="310" 
d="M297 447q0 -11 -9 -20l-45 -40l-7 -379q0 -11 -12 -11h-1l-145 4q-4 0 -8 3.5t-4 8.5l-4 213l-30 -27q-4 -4 -9 -4q-10 0 -10 11l-4 69v1q0 9 11 18l41 34l-5 320v1q0 12 11 12l169 -3q4 0 8 -4t4 -8l-3 -164l40 34l2 1q4 0 7 -4.5t3 -9.5v-56z" />
    <glyph glyph-name="OE" unicode="&#x152;" horiz-adv-x="944" 
d="M925 54q0 -16 -18 -18l-459 -39q-10 0 -15 11q-54 -21 -122 -21q-140 0 -219 84.5t-79 230.5q0 153 88.5 264t240.5 111q58 0 107 -17q5 3 10 3l429 -7q16 0 16 -16q0 -15 -7 -60t-8 -53t-7 -13.5t-13 -5.5l-217 -12q-18 0 -22 -19q-13 -65 -13 -71q0 -21 14 -21
q40 0 120.5 5.5t120.5 5.5q7 0 12 -5.5t5 -12.5l-3 -96q-2 -18 -19 -20l-239 -27q-7 -1 -12 -9.5t-5 -16.5q0 -32 20 -32l270 10q7 0 12.5 -5.5t5.5 -12.5q6 -80 6 -115zM413 325q0 79 -16 118t-59 39q-44 0 -75 -55t-31 -140q0 -81 21 -114t60 -33q48 0 74 54t26 131z" />
    <glyph glyph-name="oe" unicode="&#x153;" horiz-adv-x="797" 
d="M788 166v-2l-1 -2q-10 -64 -68.5 -119t-142.5 -55q-101 0 -166 50q-58 -50 -139 -50q-101 0 -174 67t-73 182q0 121 62.5 190.5t170.5 69.5q88 0 149 -50q57 51 132 51q111 0 162.5 -73.5t51.5 -186.5q0 -31 -25 -31q0 -3 -239 -8q8 -37 29.5 -54.5t48.5 -17.5
q22 0 39.5 10t21.5 24q3 11 18 11q24 1 46.5 1.5t37 1t25 1t16.5 0.5l5 1q13 0 13 -11zM317 238q0 32 -18.5 53t-44.5 21q-30 0 -46.5 -22t-16.5 -57q0 -32 19 -51.5t47 -19.5q27 0 43.5 21t16.5 55zM580 297q0 19 -9.5 32t-27.5 13q-43 0 -53 -54q72 4 87 4q3 0 3 5z" />
    <glyph glyph-name="Scaron" unicode="&#x160;" horiz-adv-x="620" 
d="M621 391q0 -25 -1 -30q-3 -26 -19 -26h-1l-153 5q-7 0 -12 5t-6 11q-4 47 -36 84t-86 37q-32 0 -51 -14.5t-19 -35.5q0 -42 53 -63q19 -7 57 -19t67 -21.5t65 -26.5t59.5 -35t39.5 -46t16 -61q0 -87 -66 -133.5t-193 -46.5q-131 0 -220 69.5t-93 158.5v1q0 8 5.5 12.5
t11.5 4.5l144 5h1q15 0 18 -14q9 -32 37.5 -57t72.5 -25q20 0 33.5 11t13.5 27q0 14 -22 28.5t-47 23t-56 18.5t-37 12q-79 29 -127.5 75.5t-48.5 129.5q0 102 82 164t193 62q129 0 227 -82.5t98 -207.5zM461 887q0 -3 -3 -6l-96 -142q-12 -15 -27 -17l-32 -2h-1
q-16 0 -25 17l-92 145q-3 4 -3 7q0 10 13 10h34q16 0 30 -14l48 -55q3 -6 10 -6q6 0 13 5l60 56q14 14 29 14h1l29 -2q12 0 12 -10z" />
    <glyph glyph-name="scaron" unicode="&#x161;" horiz-adv-x="482" 
d="M462 302q0 -23 -2 -33q-6 -23 -32 -21l-111 4q-9 0 -13.5 4t-5.5 8.5t-1 13.5q0 26 -13 45t-34 19q-23 0 -34 -10.5t-11 -23.5q0 -17 12.5 -29t23 -16t31.5 -11q9 -3 39.5 -11.5t43.5 -13t37 -16.5t34.5 -24t20 -33t9.5 -47q0 -69 -60.5 -104t-143.5 -35
q-107 0 -170.5 42t-63.5 108q0 33 25 34l102 1q15 1 20.5 -6.5t5.5 -22.5q0 -16 18.5 -27t47.5 -11q16 0 26.5 4t14 7.5t3.5 6.5q0 12 -15 21.5t-31.5 14.5t-38.5 10t-27 7q-60 20 -98 56t-38 103q0 90 55 144t149 54q96 0 160.5 -53.5t64.5 -158.5zM387 736q0 -4 -2 -7
l-98 -142q-9 -14 -26 -16l-32 -3h-1q-13 0 -26 17l-90 146q-3 3 -3 6q0 10 13 10h34q18 0 30 -14l46 -55q6 -6 12 -6q5 0 13 5l60 56q12 14 28 14h2l28 -1q12 -2 12 -10z" />
    <glyph glyph-name="Ydieresis" unicode="&#x178;" horiz-adv-x="646" 
d="M653 625v-2l-212 -362l1 -242q0 -6 -9 -8l-196 -32q-7 -1 -9 8l-24 258l-196 387q-1 1 -1 4q0 9 10 11l209 17q9 0 11 -9l85 -208q5 -10 9 -10q5 0 7 9l95 223q2 6 8 6h1l208 -46q3 -1 3 -4zM319 784q0 -24 -18 -40.5t-44 -16.5t-44.5 16.5t-18.5 40.5t18.5 41t44.5 17
t44 -17t18 -41zM492 784q0 -24 -18 -40.5t-44 -16.5t-44.5 16.5t-18.5 40.5t18.5 41t44.5 17t44 -17t18 -41z" />
    <glyph glyph-name="Zcaron" unicode="&#x17d;" horiz-adv-x="605" 
d="M587 637l-236 -418q-3 -3 -3 -9q0 -13 13 -13h1l201 38q7 0 7 -8v-187q0 -8 -8 -8l-545 -45q-2 0 -6 4.5t-4 6.5l255 431q4 4 4 9q0 13 -14 13l-173 -6q-2 -1 -4.5 1.5t-2.5 7.5l-34 218q-1 2 2 5t5 2q219 -31 532 -27q2 0 6 -5.5t4 -9.5zM461 887q0 -3 -3 -6l-96 -142
q-12 -15 -27 -17l-32 -2h-1q-16 0 -25 17l-92 145q-3 4 -3 7q0 10 13 10h34q16 0 30 -14l48 -55q3 -6 10 -6q6 0 13 5l60 56q14 14 29 14h1l29 -2q12 0 12 -10z" />
    <glyph glyph-name="zcaron" unicode="&#x17e;" horiz-adv-x="498" 
d="M484 463q0 -1 -1 -2l-190 -302q-1 -2 -1 -4q0 -4 5 -4l142 4h1q10 0 10 -10v-136q0 -10 -11 -10l-407 3q-4 0 -9 4.5t-5 8.5q0 2 1 2l195 299q2 1 2 4q0 4 -6 4l-140 -4q-11 0 -11 11l-1 141q0 10 11 10l403 -3q4 0 8 -5.5t4 -10.5zM424 723q0 -2 -2 -6l-98 -143
q-11 -14 -27 -16l-31 -2h-2q-15 0 -25 16l-92 146q0 2 -0.5 4t-0.5 3q0 10 11 10h35q18 0 30 -14l47 -56q5 -5 11 -5q7 0 12 5l60 56q19 14 30 14l30 -3q12 0 12 -9z" />
    <glyph glyph-name="circumflex" unicode="&#x2c6;" horiz-adv-x="314" 
d="M296 508q0 -9 -12 -9h-34q-20 0 -30 14l-48 55q-5 6 -10 6q-8 0 -13 -6l-60 -56q-18 -13 -29 -13h-1l-29 2q-13 2 -13 10q0 3 3 6l97 142q11 14 27 16l32 2h1q16 0 25 -15l92 -147q2 -6 2 -7z" />
    <glyph glyph-name="caron" unicode="&#x2c7;" horiz-adv-x="314" 
d="M298 667q0 -2 -0.5 -4t-0.5 -3l-98 -143q-11 -15 -27 -15l-31 -3h-2q-15 0 -25 16l-92 147q-2 4 -2 6q0 9 12 9h35q19 0 30 -13l47 -56q5 -5 11 -5q5 0 12 5l60 56q15 13 30 13l30 -1q11 0 11 -9z" />
    <glyph glyph-name="breve" unicode="&#x2d8;" horiz-adv-x="321" 
d="M295 632q0 -59 -40.5 -91.5t-96.5 -32.5q-57 0 -99 33t-42 91q0 17 11 17h35q8 0 9 -7q7 -57 84 -57q80 0 83 56q1 8 11 8h32q13 0 13 -17z" />
    <glyph glyph-name="dotaccent" unicode="&#x2d9;" horiz-adv-x="170" 
d="M148 594q0 -24 -18 -40.5t-44 -16.5t-44.5 16.5t-18.5 40.5t18.5 41t44.5 17t44 -17t18 -41z" />
    <glyph glyph-name="ring" unicode="&#x2da;" horiz-adv-x="300" 
d="M276 631q0 -53 -37 -89.5t-89 -36.5q-53 0 -89 36.5t-36 89.5t36.5 89t88.5 36q53 0 89.5 -36.5t36.5 -88.5zM203 631q0 22 -15.5 37.5t-37.5 15.5t-37.5 -15.5t-15.5 -37.5t15.5 -38t37.5 -16t37.5 16t15.5 38z" />
    <glyph glyph-name="ogonek" unicode="&#x2db;" horiz-adv-x="215" 
d="M192 -205q0 -7 -5 -11.5t-12 -4.5q-58 0 -100.5 27t-42.5 71q0 30 24 63t65 60h50q-55 -50 -55 -91q0 -18 9.5 -27.5t21.5 -9.5h17q16 0 18 -18l10 -57v-2z" />
    <glyph glyph-name="tilde" unicode="&#x2dc;" horiz-adv-x="327" 
d="M309 642q0 -42 -27 -73.5t-71 -31.5q-19 0 -55 11t-54 11q-25 0 -35 -23q-3 -9 -11 -9h-28q-12 0 -12 11q0 36 26.5 68t62.5 32q19 0 56 -12t56 -12q23 0 38 32q2 7 13 7l32 1q3 1 6 -2.5t3 -9.5z" />
    <glyph glyph-name="hungarumlaut" unicode="&#x2dd;" horiz-adv-x="418" 
d="M399 628q0 -8 -6 -12l-126 -111q-13 -11 -29 -11h-3l-34 3q-11 2 -11 10q0 2 2 8l87 131q11 13 24 13h4l85 -22q7 -1 7 -9zM238 628q0 -8 -6 -12l-127 -111q-13 -11 -28 -11h-3l-35 3q-10 1 -10 10q0 3 3 8l85 131q11 13 25 13h4l86 -22q6 -1 6 -9z" />
    <glyph glyph-name="endash" unicode="&#x2013;" horiz-adv-x="593" 
d="M562 309v-2l-28 -129q-2 -13 -12 -13h-1l-469 18q-5 0 -9 4t-4 9v1l13 104q0 13 13 13l483 7q14 0 14 -12z" />
    <glyph glyph-name="emdash" unicode="&#x2014;" horiz-adv-x="823" 
d="M788 310q0 -2 -1 -2l-27 -129q-2 -13 -13 -13l-695 17q-5 0 -9 4t-4 9v1l13 104q0 13 13 13l709 8q14 0 14 -12z" />
    <glyph glyph-name="quoteleft" unicode="&#x2018;" horiz-adv-x="236" 
d="M210 474q0 -14 -5 -30t-25 -33.5t-52 -17.5q-52 0 -82 31t-30 78q0 55 38.5 102t87.5 70q0 1 2 1q3 0 3 -2l35 -48q1 -1 1 -3l-1 -1v-2q-63 -30 -79 -85q20 9 39 9q29 0 48.5 -20t19.5 -49z" />
    <glyph glyph-name="quoteright" unicode="&#x2019;" horiz-adv-x="243" 
d="M224 566q0 -54 -38 -101t-88 -71q-1 -1 -2 -1q-3 0 -4 2l-35 48v3q0 2 1 3q63 30 79 85q-16 -9 -40 -9q-28 0 -47.5 20t-19.5 49q0 13 5 29.5t25 34t52 17.5q51 0 81.5 -31t30.5 -78z" />
    <glyph glyph-name="quotesinglbase" unicode="&#x201a;" horiz-adv-x="257" 
d="M224 37q0 -54 -38.5 -101t-87.5 -70q-1 -1 -2 -1q-3 0 -4 2l-35 48v2q0 3 1 4q64 30 79 85q-17 -9 -40 -9q-28 0 -47.5 20t-19.5 49q0 13 5 29.5t25 34t52 17.5q51 0 81.5 -31t30.5 -79z" />
    <glyph glyph-name="quotedblleft" unicode="&#x201c;" horiz-adv-x="462" 
d="M436 474q0 -14 -5 -30t-25 -33.5t-52 -17.5q-52 0 -82 31t-30 78q0 54 38 101.5t87 70.5q1 1 3 1q1 0 3 -2l35 -48q1 -1 1 -3q0 -1 -2 -3q-62 -29 -78 -85q20 9 39 9q29 0 48.5 -20t19.5 -49zM217 474q0 -9 -3 -21t-11 -26.5t-25.5 -24t-41.5 -9.5q-51 0 -82 31t-31 78
q0 54 38.5 101.5t87.5 70.5l3 1q1 0 3 -2l35 -48q1 -1 1 -3q0 -1 -2 -3q-63 -31 -77 -85q18 9 39 9q28 0 47 -20t19 -49z" />
    <glyph glyph-name="quotedblright" unicode="&#x201d;" horiz-adv-x="462" 
d="M224 566q0 -54 -38 -101t-88 -71q-1 -1 -2 -1q-3 0 -4 2l-35 48v3q0 2 1 3q63 30 79 85q-16 -9 -40 -9q-28 0 -47.5 20t-19.5 49q0 13 5 29.5t25 34t52 17.5q51 0 81.5 -31t30.5 -78zM442 566q0 -54 -38 -101t-87 -71q-1 -1 -4 -1q-1 0 -2 2l-35 48q-1 1 -1 3q0 1 2 3
q63 31 77 85q-15 -9 -39 -9q-28 0 -47.5 20t-19.5 49q0 13 5 29.5t25 34t52 17.5q51 0 81.5 -31t30.5 -78z" />
    <glyph glyph-name="quotedblbase" unicode="&#x201e;" horiz-adv-x="471" 
d="M224 37q0 -54 -38.5 -101t-87.5 -70q-1 -1 -2 -1q-3 0 -4 2l-35 48v2q0 3 1 4q64 30 79 85q-17 -9 -40 -9q-28 0 -47.5 20t-19.5 49q0 13 5 29.5t25 34t52 17.5q51 0 81.5 -31t30.5 -79zM442 37q0 -54 -38 -101t-87 -70q-1 -1 -4 -1q-1 0 -2 2l-35 48l-1 2q0 2 2 4
q63 31 77 85q-15 -9 -39 -9q-28 0 -47.5 20t-19.5 49q0 13 5 29.5t25 34t52 17.5q51 0 81.5 -31t30.5 -79z" />
    <glyph glyph-name="dagger" unicode="&#x2020;" horiz-adv-x="397" 
d="M389 485q0 -7 -19 -13l-122 -30l-20 -282q0 -4 -3.5 -7.5t-7.5 -3.5l-57 2q-12 2 -12 11l-7 282l-113 28q-20 6 -20 13t20 12l111 29l-4 129q0 11 12 11l105 -9q10 0 10 -12l-8 -118l116 -30q19 -4 19 -12z" />
    <glyph glyph-name="daggerdbl" unicode="&#x2021;" horiz-adv-x="423" 
d="M403 485q0 -7 -20 -13l-121 -30l-8 -107l120 -31q20 -5 20 -12q0 -8 -20 -13l-122 -32h-4l-6 -87q0 -11 -12 -11l-56 2q-12 2 -12 11l-2 85h-4l-124 32q-20 5 -20 13q0 7 20 12l124 32h1l-2 108l-113 28q-20 6 -20 13q0 8 20 12l110 29l-3 129q0 11 11 11l105 -9
q13 0 11 -12l-9 -118l116 -30q20 -4 20 -12z" />
    <glyph glyph-name="bullet" unicode="&#x2022;" horiz-adv-x="362" 
d="M310 305q0 -53 -37.5 -90.5t-90.5 -37.5t-90.5 37.5t-37.5 90.5q0 52 37.5 89.5t90.5 37.5t90.5 -37.5t37.5 -89.5z" />
    <glyph glyph-name="ellipsis" unicode="&#x2026;" horiz-adv-x="797" 
d="M752 68q0 -31 -28 -53.5t-67 -22.5t-66.5 22.5t-27.5 53.5q0 32 27.5 54.5t66.5 22.5t67 -22.5t28 -54.5zM493 68q0 -31 -27.5 -53.5t-66.5 -22.5t-66.5 22.5t-27.5 53.5q0 32 27.5 54.5t66.5 22.5q40 0 67 -22.5t27 -54.5zM235 68q0 -31 -27.5 -53.5t-66.5 -22.5
t-66.5 22.5t-27.5 53.5q0 32 27.5 54.5t66.5 22.5t66.5 -22.5t27.5 -54.5z" />
    <glyph glyph-name="perthousand" unicode="&#x2030;" horiz-adv-x="1111" 
d="M1096 223q0 -99 -39 -167t-109 -68q-77 0 -116.5 56t-39.5 137q0 90 43.5 162t111.5 72t108.5 -50.5t40.5 -141.5zM758 223q0 -99 -38.5 -167t-108.5 -68q-78 0 -117.5 56t-39.5 137q0 89 44 161.5t112 72.5q67 0 107.5 -50.5t40.5 -141.5zM593 609q0 -2 -77 -142
t-159 -290t-91 -172q-5 -8 -14 -8q-8 0 -27.5 11.5t-19.5 21.5q0 3 73 148.5t151 302t87 179.5q2 9 12 9q5 0 35 -25t30 -35zM330 482q0 -99 -39 -167t-109 -68q-77 0 -116.5 56t-39.5 137q0 90 44 162t112 72t108 -50t40 -142zM977 207q0 83 -26 83q-17 0 -27.5 -33.5
t-10.5 -72.5q0 -71 30 -71q14 0 24 31t10 63zM640 207q0 83 -27 83q-16 0 -26.5 -33.5t-10.5 -72.5q0 -71 30 -71q13 0 23.5 31t10.5 63zM212 467q0 82 -27 82q-16 0 -27 -33t-11 -72q0 -72 30 -72q14 0 24.5 31t10.5 64z" />
    <glyph glyph-name="guilsinglleft" unicode="&#x2039;" horiz-adv-x="282" 
d="M242 154v-2l-2 -41q0 -17 -9 -17q-3 0 -7 3l-173 139q-14 9 -16 37l-3 45v2q0 24 16 36l178 130l6 3q10 0 10 -17v-49q0 -31 -14 -42l-86 -68q-5 -3 -5 -16q0 -12 5 -17l86 -85q14 -12 14 -41z" />
    <glyph glyph-name="guilsinglright" unicode="&#x203a;" horiz-adv-x="301" 
d="M258 262q0 -24 -16 -35l-178 -130q-3 -3 -7 -3q-9 0 -9 17v49q0 32 14 42l86 67q6 5 6 16q0 12 -6 17l-86 86q-14 16 -14 41v2l2 41q2 17 10 17q1 0 3.5 -1.5t3.5 -1.5l172 -139q15 -12 17 -37l2 -45v-3z" />
    <glyph glyph-name="fraction" unicode="&#x2044;" horiz-adv-x="333" 
d="M384 665q0 -3 -70 -169t-147.5 -348.5t-84.5 -198.5q-3 -8 -13 -8q-8 0 -28 11.5t-20 21.5q0 7 286 742q2 8 12 8q5 0 35 -24.5t30 -34.5z" />
    <glyph glyph-name="Euro" unicode="&#x20ac;" horiz-adv-x="708" 
d="M665 568q0 -4 -2 -6l-70 -121q-6 -9 -11 -9q-1 0 -3 2q-29 43 -82 43q-64 0 -113 -52l93 10q7 1 12 -4.5t4 -11.5l-11 -77q-3 -14 -17 -16l-138 -7q-5 -16 -7 -47l163 -1q7 0 12.5 -5t3.5 -11l-17 -37q-8 -16 -16 -16l-127 -6q33 -49 94 -49q35 0 70.5 15t51.5 27t22 19
q4 5 8 5t8 -6q3 -3 17 -23.5t28 -42t15 -23.5q4 -5 4 -12q0 -4 -3 -9q-6 -7 -12.5 -13.5t-29 -23t-46.5 -28.5t-63.5 -21.5t-81.5 -9.5q-95 0 -176 47.5t-112 136.5l-83 -4q-6 -1 -10 3.5t-6 12.5l-10 60q-1 6 4 10.5t12 4.5h78v5q0 21 1 31l-70 -3q-6 -1 -11 4t-5 12v51
q0 14 16 16l88 10q38 113 130.5 187.5t203.5 74.5q48 0 93.5 -18t66 -34t26.5 -25q8 -10 8 -15z" />
    <glyph glyph-name="trademark" unicode="&#x2122;" horiz-adv-x="667" 
d="M657 368q0 -8 -9 -8l-70 2q-8 2 -10 10q-11 64 -11 146q0 4 -1 4q-2 0 -3 -3l-45 -108q-2 -9 -11 -9h-1l-64 3q-9 2 -13 9l-27 77q0 3 -2 3t-3 -3l-25 -119q0 -8 -10 -8l-71 8q-8 2 -8 9v1l58 280q2 8 11 8l89 -7q8 0 10 -9l23 -132q2 -3 3 -3q2 1 3 3l64 142q3 8 12 8h1
l87 -8q9 0 9 -10q3 -221 14 -285v-1zM299 667q0 -41 -6 -64q-1 -5 -10 -5q-56 0 -64 -6q-12 -11 -12 -221q0 -8 -7 -8q-12 0 -37 -1t-38 -1q-9 0 -9 10q0 36 3 106t3 105q0 6 -1.5 7.5t-7.5 1.5q-15 0 -45 -2.5t-46 -2.5q-6 0 -6 6q0 10 1 32t1 33q0 5 9 5q90 0 192 5
q8 0 35 2t41 2q4 0 4 -4z" />
    <glyph glyph-name="apple" unicode="&#xf8ff;" horiz-adv-x="1408" 
d="M509 567q0 -67 -30 -147t-72 -148q-24 -38 -60 -82t-81 -88t-95.5 -73t-91.5 -29q-25 0 -43.5 13.5t-18.5 37.5q0 40 43.5 88.5t110 92t121.5 74t100 51.5q3 1 9 5q7 10 22.5 39t15.5 36v5q-7 0 -11 -2q-105 -45 -177 -45q-49 0 -85 20t-36 65q0 47 57 94t126 73t114 26
q82 0 82 -106zM1384 443q0 -5 -8 -8q-36 -6 -70 -29q-7 -5 -26 -23t-36 -30.5t-27 -12.5q-22 0 -22 42l-1 2q-10 -5 -42.5 -43t-34.5 -39q-3 3 -3 7q0 12 81 93l1 11q0 11 -8 11q-7 0 -36 -32.5t-47 -32.5q-2 0 -6.5 1.5t-6.5 1.5q-18 -23 -44 -23q-18 0 -27.5 14t-7.5 32
q-28 -28 -42 -28q-8 0 -12 3q-21 -21 -42 -21q-16 0 -24 13t-6 30q-42 -42 -70 -42q-21 0 -30 14.5t-7 36.5q-1 -1 -7 -8t-9.5 -11t-9.5 -10.5t-11 -10t-10.5 -6.5t-10.5 -3q-17 0 -26.5 16t-11.5 35q13 6 34.5 25.5t21.5 30.5q0 3 -3 3q-22 0 -50 -44t-38 -74q-17 7 -17 18
q0 10 8 34q-2 -2 -9 -10t-11.5 -12.5t-11.5 -11t-13.5 -9.5t-12.5 -3q-18 0 -18 26q0 16 2 25q-10 -18 -26 -34.5t-30 -16.5q-20 0 -20 26q0 21 11 47t23.5 42.5t17.5 16.5q6 0 18 -3.5t12 -7.5q0 -1 -11.5 -15.5t-23 -35t-11.5 -34.5q0 -5 3 -5q12 0 45.5 50t37.5 50
q8 0 19 -6t12 -13q-11 -9 -27.5 -35.5t-16.5 -38.5q0 -7 5 -7t14 8t20 20.5t12 13.5q10 26 24 57t37.5 67.5t38.5 36.5q32 0 32 -17q0 -5 -4 -5q-51 -49 -85 -114q39 39 51 39q14 0 23 -11t9 -26q0 -14 -18.5 -31t-33.5 -19q0 -24 10 -24q4 0 14.5 10t23 24.5t14.5 16.5
q22 60 66 60q13 0 23.5 -9.5t10.5 -21.5q0 -22 -23 -36.5t-45 -12.5q-3 -8 -3 -18q0 -22 12 -22q21 0 61 40q5 41 40 104.5t69 63.5q8 0 18 -4t10 -11q0 -1 -5 -6q-50 -36 -74 -87h1q7 7 20 7q29 0 29 -31q0 -29 -26 -61q1 -1 4 -1q4 0 10.5 4.5t11.5 9.5t11.5 12.5t8.5 9.5
q8 29 31 53t50 24q16 0 27 -9t11 -23q0 -37 -31 -75q2 -2 5 -2q10 0 48.5 43.5t56.5 43.5q8 0 12 -3.5t4.5 -6.5t0 -11.5t-0.5 -10.5v-1q12 13 37.5 35.5t33.5 22.5q4 0 9 -5t6 -9h-1q-7 -5 -27 -18.5t-33 -23t-26 -21.5q-2 -8 -2 -23q0 -20 8 -20q7 0 29.5 22.5t52 45
t52.5 22.5q15 0 15 -14zM1248 294l-383 -226l-393 224l393 -98zM474 572q0 25 -9.5 36.5t-33.5 11.5q-49 0 -155.5 -56.5t-106.5 -96.5q0 -17 43 -17q102 0 207 44q7 5 14 5q9 0 17 -10l4 -2q8 2 14 36.5t6 48.5zM354 287q0 2 -1 2q-13 0 -80 -44.5t-97 -67.5
q-124 -98 -124 -135q0 -6 9 -6q28 0 81.5 38.5t90.5 73.5q24 23 72.5 75.5t48.5 63.5zM492 756q0 -9 -10 -9h-5l-11 -31q-7 -19 -62 -19q-55 -2 -65 21l-10 28h-1q-10 0 -10 9t10 9q11 0 11 -9q0 -2 -2 -4l15 -10l7 33q-9 2 -9 10q0 9 11 9q10 0 10 -9q0 -6 -5 -8l18 -29
l18 55q-7 0 -7 9t11 9q10 0 10 -9t-8 -9l15 -57l19 30q-5 3 -5 8q0 9 10 9q11 0 11 -9q0 -8 -10 -10l2 -32l22 11q-1 1 -1 4q0 9 11 9q10 0 10 -9zM865 132v55l-336 86zM1197 270l-332 -140v-53zM1081 371q-14 10 -14 36q0 13 4 25h-2q-21 -21 -21 -56q0 -17 12 -17
q13 0 21 12zM1117 445q0 6 -4 6q-9 0 -19 -22.5t-10 -33.5q0 -10 7 -13q7 8 16.5 30.5t9.5 32.5zM870 441q0 9 -8 9q-13 0 -24 -12.5t-16 -26.5q14 1 31 11t17 19zM960 431q0 8 -6 8q-7 0 -11 -14.5t-4 -23.5q0 -17 7 -21q14 23 14 51zM938 368q-12 8 -12 30q0 4 1 11t1 10
q0 -1 -3 -2q-11 -26 -11 -45q0 -17 10 -17q9 0 14 13z" />
    </font>
</defs>
</svg>
